#N canvas 0 0 678 788 10;
#X msg 103 524 cnv 10 10 200 \$0-send_null \$0-6receive label 2 5 1
10 0 1 0;
#X msg 313 492 set cnv;
#X msg 282 455 add2 10 10 200;
#X msg 190 402 adddollsym 0-\$1;
#X obj 190 364 makefilename %dreceive;
#X obj 190 383 symbol;
#X msg 218 429 adddollsym 0-send_null;
#X obj 46 463 f;
#X msg -57 444 bang;
#X floatatom 24 463 3 20 60 0 - - -;
#X floatatom 54 440 3 150 200 0 - - -;
#X obj 11 486 pack 0 0;
#X text -19 451 x-position;
#X text -10 435 y-position;
#X msg -35 513 \; \$0-6receive pos \$1 \$2;
#X msg 36 402 set;
#X msg 32 384 addsemi;
#X obj 54 421 * 12;
#X obj -51 359 t b b f;
#X obj -43 323 f;
#X floatatom 347 158 5 0 0 0 - - -;
#X obj -58 263 bng 15 250 50 0 empty empty empty 17 7 0 10 -262144
-1 -1;
#X msg 27 369 adddollsym 0-\$1;
#X obj 27 331 makefilename %dreceive;
#X obj 27 350 symbol;
#X obj 32 305 f;
#X obj 196 341 f;
#X obj 33 263 bng 15 250 50 0 empty empty empty 17 7 0 10 -262144 -1
-1;
#X obj 10 175 t b b b b b;
#X msg -1 233 adddollar 1;
#X msg -42 211 adddollar 2;
#X obj -31 185 t b b b;
#X msg 5 282 add2 pos;
#X obj 194 158 t b b b b b b;
#X obj -19 118 t b b;
#X obj 99 53 bng 15 250 50 0 empty empty empty 17 7 0 10 -262144 -1
-1;
#X msg 178 298 add2 label 2 5 1 10 0 1 0;
#X obj 210 600 cnv 15 100 60 empty \$0-60receive empty 20 12 0 14 -233017
-66577 0;
#X obj 98 94 t b b b;
#X obj 77 440 f;
#X msg 100 688 cnv 10 10 200 koke kokeR testi 2 5 0 10 0 1 0;
#X connect 1 0 0 0;
#X connect 2 0 0 0;
#X connect 3 0 0 0;
#X connect 4 0 5 0;
#X connect 5 0 3 0;
#X connect 6 0 0 0;
#X connect 7 0 11 0;
#X connect 8 0 7 0;
#X connect 9 0 7 1;
#X connect 10 0 39 0;
#X connect 11 0 14 0;
#X connect 15 0 14 0;
#X connect 16 0 14 0;
#X connect 17 0 10 0;
#X connect 18 0 8 0;
#X connect 18 1 9 0;
#X connect 19 0 18 0;
#X connect 20 0 17 0;
#X connect 20 0 25 1;
#X connect 20 0 26 1;
#X connect 21 0 18 0;
#X connect 22 0 14 0;
#X connect 23 0 24 0;
#X connect 24 0 22 0;
#X connect 25 0 23 0;
#X connect 26 0 4 0;
#X connect 27 0 25 0;
#X connect 28 0 31 0;
#X connect 28 1 32 0;
#X connect 28 2 27 0;
#X connect 28 3 16 0;
#X connect 28 4 15 0;
#X connect 29 0 14 0;
#X connect 30 0 14 0;
#X connect 31 0 21 0;
#X connect 31 1 30 0;
#X connect 31 2 29 0;
#X connect 32 0 14 0;
#X connect 33 0 0 0;
#X connect 33 1 36 0;
#X connect 33 2 26 0;
#X connect 33 3 6 0;
#X connect 33 4 2 0;
#X connect 33 5 1 0;
#X connect 34 0 14 0;
#X connect 34 1 28 0;
#X connect 35 0 38 0;
#X connect 36 0 0 0;
#X connect 38 0 34 0;
#X connect 38 1 33 0;
#X connect 38 2 20 0;
#X connect 39 0 11 1;
