#N canvas 501 319 1038 300 10;
#X obj 211 256 s;
#X obj 331 165 ftos;
#X msg 177 145 set \$1;
#X msg 144 53 add2 \$1;
#X obj 331 147 inlet;
#X obj 137 -63 inlet;
#X symbolatom 331 227 10 0 0 0 - - -;
#X obj 331 184 pack s s;
#X obj 331 203 makesymbol %s-%s;
#X obj 144 34 symbol;
#X obj 376 147 loadbang;
#X obj 125 14 t b a b;
#X obj 137 -40 route symbol list;
#X obj 226 27 t l b b b;
#X msg 286 71 adddollar 1;
#X msg 273 52 adddollar 2;
#X text 175 -62 annettava arvo;
#X text 440 143 canvaksen numero;
#X text 388 -58 l‰hett‰‰ canvasille arvoja. Ensimm‰inen argumentti
on toimitettava toimenpide \, toinen argumentti on sendin nimi.;
#X obj 177 127 symbol \$1;
#X obj 376 165 symbol \$2;
#X obj 189 -15 t l b;
#X msg 137 166 label;
#X connect 1 0 7 0;
#X connect 2 0 22 0;
#X connect 3 0 22 0;
#X connect 4 0 1 0;
#X connect 5 0 12 0;
#X connect 7 0 8 0;
#X connect 8 0 0 1;
#X connect 8 0 6 0;
#X connect 9 0 3 0;
#X connect 10 0 20 0;
#X connect 11 0 22 0;
#X connect 11 1 9 0;
#X connect 11 2 19 0;
#X connect 12 0 11 0;
#X connect 12 1 21 0;
#X connect 13 1 15 0;
#X connect 13 2 14 0;
#X connect 13 3 19 0;
#X connect 14 0 22 0;
#X connect 15 0 22 0;
#X connect 19 0 2 0;
#X connect 20 0 7 1;
#X connect 21 0 22 0;
#X connect 21 1 13 0;
#X connect 22 0 0 0;
