#N canvas 170 1 1477 934 10;
#X obj -31 99 demux 0 1 2 3 4 5 6;
#X obj -48 267 symbol;
#X obj -49 308 outlet;
#X obj -35 54 inlet;
#X obj 105 40 inlet;
#X floatatom 113 102 5 0 0 0 - - -;
#X floatatom 166 102 5 0 0 0 - - -;
#X text 157 102 r;
#X text 102 101 s;
#X obj 54 251 makefilename septimi%d;
#X obj -40 140 makefilename pyt_priimi%d;
#X obj -22 158 makefilename pyt_sekunti%d;
#X obj -5 177 makefilename pyt_terssi%d;
#X obj 11 195 makefilename pyt_kvartti%d;
#X obj 24 214 makefilename pyt_kvintti%d;
#X obj 40 233 makefilename pyt_seksti%d;
#X obj 111 73 t b f;
#X connect 0 0 10 0;
#X connect 0 1 11 0;
#X connect 0 2 12 0;
#X connect 0 3 13 0;
#X connect 0 4 14 0;
#X connect 0 5 15 0;
#X connect 0 6 9 0;
#X connect 1 0 2 0;
#X connect 3 0 5 0;
#X connect 4 0 16 0;
#X connect 5 0 0 0;
#X connect 6 0 0 1;
#X connect 9 0 1 0;
#X connect 10 0 1 0;
#X connect 11 0 1 0;
#X connect 12 0 1 0;
#X connect 13 0 1 0;
#X connect 14 0 1 0;
#X connect 15 0 1 0;
#X connect 16 0 5 0;
#X connect 16 1 6 0;
#X coords 0 -1 1 1 100 20 2 100 100;
