#N canvas 170 1 816 934 10;
#X obj -31 99 demux 0 1 2 3 4 5 6;
#X obj -40 140 makefilename priimi%d;
#X obj -22 158 makefilename sekunti%d;
#X obj -5 177 makefilename terssi%d;
#X obj 11 195 makefilename kvartti%d;
#X obj 24 214 makefilename kvintti%d;
#X obj 40 233 makefilename seksti%d;
#X obj -40 302 symbol;
#X obj -58 420 outlet;
#X obj -35 54 inlet;
#X obj 76 32 inlet;
#X floatatom 113 102 5 0 0 0 - - -;
#X floatatom 166 102 5 0 0 0 - - -;
#X text 157 102 r;
#X text 102 101 s;
#X obj 54 251 makefilename septimi%d;
#X obj 74 63 t b f;
#X connect 0 0 1 0;
#X connect 0 1 2 0;
#X connect 0 2 3 0;
#X connect 0 3 4 0;
#X connect 0 4 5 0;
#X connect 0 5 6 0;
#X connect 0 6 15 0;
#X connect 1 0 7 0;
#X connect 2 0 7 0;
#X connect 3 0 7 0;
#X connect 4 0 7 0;
#X connect 5 0 7 0;
#X connect 6 0 7 0;
#X connect 7 0 8 0;
#X connect 9 0 11 0;
#X connect 10 0 16 0;
#X connect 11 0 0 0;
#X connect 12 0 0 1;
#X connect 15 0 7 0;
#X connect 16 0 11 0;
#X connect 16 1 12 0;
#X coords 0 -1 1 1 100 20 2 100 100;
