#N canvas 532 147 896 786 10;
#X obj 103 101 cnv 15 38 24 empty \$0-1 empty 20 12 0 14 -262144 -166441
0;
#X obj 144 101 cnv 15 38 24 empty \$0-2 empty 20 12 0 14 -262144 -166441
0;
#X obj 185 101 cnv 15 38 24 empty \$0-3 empty 20 12 0 14 -262144 -166441
0;
#X obj 226 101 cnv 15 38 24 empty \$0-4 empty 20 12 0 14 -262144 -166441
0;
#X obj 267 101 cnv 15 38 24 empty \$0-5 empty 20 12 0 14 -262144 -166441
0;
#X obj 308 101 cnv 15 38 24 empty \$0-6 empty 20 12 0 14 -262144 -166441
0;
#X obj 349 101 cnv 15 38 24 empty \$0-7 empty 20 12 0 14 -262144 -166441
0;
#X obj -110 30 inlet;
#N canvas 884 130 739 479 varita_skaalan_intervallit 0;
#X obj 241 364 f;
#X obj 241 381 + 1;
#X obj 169 534 s \$0-1;
#X obj 179 544 s \$0-2;
#X obj 189 554 s \$0-3;
#X obj 199 564 s \$0-4;
#X obj 251 537 s \$0-5;
#X obj 261 547 s \$0-6;
#X obj 271 557 s \$0-7;
#X obj 281 567 s \$0-8;
#X obj 279 239 loadbang;
#X msg 178 415 color \$1;
#X obj 178 453 demux 0 1 2 3 4 5 6 7;
#X obj 2 220 list-drip;
#X msg 119 415 label \$1;
#X obj 29 390 makefilename %d;
#X obj 88 264 r \$0-pohja-aani;
#X obj 3 111 inlet;
#N canvas 715 309 827 533 varita_intervalli_BACKUP 0;
#N canvas 0 0 545 396 RGB 0;
#X obj 272 63 inlet;
#X obj 349 65 inlet;
#X obj 415 66 inlet;
#X text 277 38 red;
#X text 347 40 green;
#X text 419 40 blue;
#X obj 415 112 t b f;
#X obj 349 170 +;
#X obj 349 195 t b f;
#X obj 349 226 +;
#X obj 306 395 outlet;
#X obj 306 371 f;
#X obj 272 89 * -65536;
#X obj 349 90 * -256;
#X obj 415 90 * -1;
#X obj 349 257 - 1;
#X connect 0 0 12 0;
#X connect 1 0 13 0;
#X connect 2 0 14 0;
#X connect 6 0 7 0;
#X connect 6 1 7 1;
#X connect 7 0 8 0;
#X connect 8 0 9 0;
#X connect 8 1 9 1;
#X connect 9 0 15 0;
#X connect 11 0 10 0;
#X connect 12 0 9 0;
#X connect 13 0 7 0;
#X connect 14 0 6 0;
#X connect 15 0 11 0;
#X restore 511 379 pd RGB;
#X floatatom 491 333 5 1 255 0 - - -;
#X floatatom 525 333 5 1 255 0 - - -;
#X floatatom 559 333 5 1 255 0 - - -;
#X obj 74 -29 inlet;
#X obj 531 179 unpack f f f;
#X obj 420 273 +;
#X obj 455 273 +;
#X obj 493 273 +;
#X msg 488 180 0;
#X msg 488 160 128 128 128;
#N canvas 670 311 450 476 lista-jakauma 0;
#X obj 138 11 list-sort;
#X obj 138 31 list-drip;
#X obj 138 75 change;
#X obj 131 137 f;
#X obj 111 55 t b f;
#X obj 155 137 + 1;
#X obj 116 155 f;
#X obj 140 -25 t l b;
#X msg 148 116 0;
#X msg 236 78 set 300;
#X obj 142 -62 inlet;
#X msg 182 220 0 0 0 0 0 0 0 0 0 0 0 0;
#X obj 138 94 t b b f;
#X obj 89 220 list-replace;
#X obj 89 186 l;
#X obj 82 251 l;
#X obj 55 278 l;
#X obj 55 300 outlet;
#X obj 146 326 print asdf;
#X text 205 -57 laskee kaikkien lukujen n insidenssit/aksidenssit silloin
kun luku 0 < n 12;
#X connect 0 0 1 0;
#X connect 1 0 4 0;
#X connect 1 1 16 0;
#X connect 2 0 12 0;
#X connect 3 0 5 0;
#X connect 3 0 6 1;
#X connect 4 0 3 0;
#X connect 4 1 2 0;
#X connect 5 0 3 1;
#X connect 6 0 14 0;
#X connect 7 0 0 0;
#X connect 7 1 8 0;
#X connect 7 1 9 0;
#X connect 7 1 11 0;
#X connect 8 0 3 1;
#X connect 9 0 2 0;
#X connect 10 0 7 0;
#X connect 11 0 15 0;
#X connect 12 0 6 0;
#X connect 12 1 8 0;
#X connect 12 2 13 1;
#X connect 13 0 15 0;
#X connect 14 0 13 0;
#X connect 15 0 13 2;
#X connect 15 0 16 1;
#X connect 16 0 17 0;
#X connect 16 0 18 0;
#X restore 668 175 pd lista-jakauma;
#X obj 668 199 list-equalize;
#X obj 668 220 list-nth;
#X obj 668 249 < 0.5;
#X obj 694 281 >= 0.5;
#X msg 657 323 0;
#X obj 511 427 pack f f;
#X text 664 103 muuttaa tekstien v‰rin joko valkoiseksi tai mustakksi
\, konsonanssista riippuen;
#X text 299 60 v‰ritt‰‰ taustan s‰velluokan mukaisesti;
#X text 575 466 pakkaa \, \$1 = tausta \, \$2 = teksti;
#X obj 546 7 h_map skaalatulostimelle;
#X msg 546 -14 get \$1;
#X obj 548 39 unpack f f;
#X obj 548 65 + 3;
#X obj 533 85 -;
#X obj 565 105 mod 12;
#X obj 298 82 t b f b f b;
#X msg 695 329 -1;
#X obj 299 18 t b f;
#X obj 344 17 r \$0-viive;
#X msg 78 250 60;
#X msg 120 229 60;
#X msg 258 196 60;
#X obj 71 132 route 1 2 3 4 5 6 7 8 9 10 11;
#X obj 453 -28 r \$0-kohde;
#X obj 441 14 - 1;
#X obj 441 38 f;
#X obj 705 135 r \$0-totals;
#X obj 668 155 l;
#X msg 42 -26 1;
#X obj 299 44 del 1;
#X obj 52 101 t b f b;
#X obj 41 77 t b f;
#X obj 421 425 f;
#X obj 421 445 outlet;
#X msg 446 97 -60;
#X msg 446 116 60;
#X text 469 96 diss;
#X text 468 116 kons;
#X obj 149 -23 inlet;
#X obj 134 3 +;
#X msg 290 196 100;
#X obj 113 47 mod 12;
#X connect 0 0 17 0;
#X connect 0 0 44 1;
#X connect 1 0 0 0;
#X connect 2 0 0 1;
#X connect 3 0 0 2;
#X connect 4 0 51 0;
#X connect 5 0 8 0;
#X connect 5 1 7 0;
#X connect 5 2 6 0;
#X connect 6 0 1 0;
#X connect 7 0 2 0;
#X connect 8 0 3 0;
#X connect 9 0 8 1;
#X connect 9 0 7 1;
#X connect 9 0 6 1;
#X connect 9 0 8 0;
#X connect 9 0 7 0;
#X connect 9 0 6 0;
#X connect 10 0 5 0;
#X connect 11 0 12 0;
#X connect 12 0 13 0;
#X connect 13 0 14 0;
#X connect 13 0 15 0;
#X connect 14 0 16 0;
#X connect 15 0 28 0;
#X connect 16 0 17 1;
#X connect 21 0 23 0;
#X connect 22 0 21 0;
#X connect 23 1 24 0;
#X connect 24 0 25 1;
#X connect 25 0 26 0;
#X connect 26 0 13 1;
#X connect 27 0 10 0;
#X connect 27 1 34 0;
#X connect 27 2 9 0;
#X connect 27 2 39 0;
#X connect 27 3 25 0;
#X connect 27 4 37 0;
#X connect 28 0 17 1;
#X connect 29 0 41 0;
#X connect 30 0 41 1;
#X connect 31 0 6 1;
#X connect 32 0 8 1;
#X connect 33 0 7 1;
#X connect 34 0 32 0;
#X connect 34 1 31 0;
#X connect 34 2 32 0;
#X connect 34 3 31 0;
#X connect 34 4 33 0;
#X connect 34 5 31 0;
#X connect 34 5 32 0;
#X connect 34 6 33 0;
#X connect 34 7 32 0;
#X connect 34 8 31 0;
#X connect 34 9 32 0;
#X connect 34 10 31 0;
#X connect 34 11 52 0;
#X connect 35 0 36 0;
#X connect 36 0 37 1;
#X connect 37 0 22 0;
#X connect 38 0 39 1;
#X connect 39 0 11 0;
#X connect 40 0 43 0;
#X connect 42 0 10 0;
#X connect 42 1 34 0;
#X connect 42 2 9 0;
#X connect 43 0 44 0;
#X connect 43 1 42 0;
#X connect 44 0 45 0;
#X connect 46 0 8 1;
#X connect 46 0 7 1;
#X connect 46 0 6 1;
#X connect 47 0 8 1;
#X connect 47 0 7 1;
#X connect 47 0 6 1;
#X connect 50 0 51 1;
#X connect 51 0 53 0;
#X connect 52 0 7 1;
#X connect 53 0 43 0;
#X restore 233 109 pd varita_intervalli_BACKUP;
#X obj 2 313 varita;
#X obj 9 137 t l b;
#X msg 392 269 color 0 1;
#X msg 453 298 label;
#X obj 11 275 t f f b;
#X obj 381 225 t b b b;
#X msg 331 287 -1;
#X connect 0 0 1 0;
#X connect 1 0 0 1;
#X connect 1 0 12 1;
#X connect 10 0 25 0;
#X connect 11 0 12 0;
#X connect 12 0 2 0;
#X connect 12 1 3 0;
#X connect 12 2 4 0;
#X connect 12 3 5 0;
#X connect 12 4 6 0;
#X connect 12 5 7 0;
#X connect 12 6 8 0;
#X connect 12 7 9 0;
#X connect 13 0 23 0;
#X connect 14 0 12 0;
#X connect 15 0 14 0;
#X connect 16 0 19 1;
#X connect 17 0 20 0;
#X connect 19 0 11 0;
#X connect 20 0 13 0;
#X connect 20 1 24 0;
#X connect 21 0 7 0;
#X connect 21 0 2 0;
#X connect 21 0 3 0;
#X connect 21 0 4 0;
#X connect 21 0 5 0;
#X connect 21 0 6 0;
#X connect 21 0 8 0;
#X connect 21 0 9 0;
#X connect 22 0 9 0;
#X connect 22 0 2 0;
#X connect 22 0 8 0;
#X connect 22 0 7 0;
#X connect 22 0 6 0;
#X connect 22 0 5 0;
#X connect 22 0 4 0;
#X connect 22 0 3 0;
#X connect 23 0 19 0;
#X connect 23 1 15 0;
#X connect 23 2 0 0;
#X connect 24 0 25 0;
#X connect 24 1 21 0;
#X connect 24 2 22 0;
#X connect 25 0 0 1;
#X restore -139 114 pd varita_skaalan_intervallit;
#X floatatom -19 43 21 0 21 0 - - -;
#X obj -19 61 skaala_intervallit;
#X obj -19 80 summaa_intervallit;
#X connect 7 0 8 0;
#X connect 9 0 10 0;
#X connect 10 0 11 0;
#X coords 0 -1 1 1 290 25 2 100 100;
