#N canvas 0 0 952 504 10;
#X obj 100 102 tgl 12 0 empty empty empty 17 7 0 10 -228856 -1 -1 0
1;
#X obj 112 102 tgl 12 0 empty empty empty 17 7 0 10 -262144 -1 -1 0
1;
#X obj 124 102 tgl 12 0 empty empty empty 17 7 0 10 -262144 -1 -1 0
1;
#X obj 135 102 tgl 12 0 empty empty o 2 6 0 8 -262144 -1 -191407 0
1;
#X obj 147 102 tgl 12 0 empty empty empty 17 7 0 10 -262144 -1 -1 0
1;
#X obj 160 102 tgl 12 0 empty empty o 2 6 0 8 -262144 -1 -99865 0 1
;
#X obj 172 102 tgl 12 0 empty empty empty 17 7 0 10 -262144 -1 -1 0
1;
#X obj 185 102 tgl 12 0 empty empty o 2 6 0 8 -262144 -1 -162280 0
1;
#X obj 197 102 tgl 12 0 empty empty empty 17 7 0 10 -262144 -1 -1 0
1;
#X obj 210 102 tgl 12 0 empty empty o 2 6 0 8 -262144 -1 -191407 0
1;
#X obj 222 102 tgl 12 0 empty empty empty 17 7 0 10 -262144 -1 -1 0
1;
#X obj 234 102 tgl 12 0 empty empty empty 17 7 0 10 -262144 -1 -1 0
1;
#X obj 211 70 sel 1 2 3 4 5 6 7 8 9 10 11 0;
#X obj 211 45 mod 12;
#X obj 211 6 inlet;
#X msg 480 69 0;
#X obj 480 43 inlet;
#X connect 12 0 0 0;
#X connect 12 1 1 0;
#X connect 12 2 2 0;
#X connect 12 3 3 0;
#X connect 12 4 4 0;
#X connect 12 5 5 0;
#X connect 12 6 6 0;
#X connect 12 7 7 0;
#X connect 12 8 8 0;
#X connect 12 9 9 0;
#X connect 12 10 10 0;
#X connect 12 11 11 0;
#X connect 13 0 12 0;
#X connect 14 0 13 0;
#X connect 15 0 11 0;
#X connect 15 0 10 0;
#X connect 15 0 9 0;
#X connect 15 0 8 0;
#X connect 15 0 7 0;
#X connect 15 0 6 0;
#X connect 15 0 5 0;
#X connect 15 0 4 0;
#X connect 15 0 3 0;
#X connect 15 0 2 0;
#X connect 15 0 1 0;
#X connect 15 0 0 0;
#X connect 16 0 15 0;
#X coords 0 -1 1 1 146 17 1 100 100;
