#N canvas 681 0 863 929 10;
#X obj 187 378 list-map;
#X obj 241 378 +;
#X obj 187 295 skaala_intervallit;
#X obj 154 185 f;
#X obj 180 184 + 1;
#X msg 169 157 0;
#X obj 74 -203 inlet;
#X floatatom 187 236 5 0 0 0 - - -;
#X floatatom 256 240 5 0 0 0 - - -;
#X obj 187 443 list-sieve;
#X obj 352 482 f;
#X msg 127 474 HIT;
#X obj 187 398 list-drip;
#X obj 390 481 + 1;
#X obj 187 468 bng 15 250 50 0 empty empty empty 17 7 0 10 -262144
-1 -1;
#X obj 187 346 t l l;
#X obj 625 612 pack f f;
#X obj 256 274 t f f;
#X obj 312 242 s \$0-konsonator_skaala;
#X obj 187 274 t f f;
#X obj 625 558 r \$0-konsonator_skaala;
#X msg 442 622 add \$1;
#X obj 361 551 t b f;
#X obj 360 673 s \$0-konsonator_seuraava;
#X obj 154 107 spigot;
#X obj 187 89 tgl 15 0 empty empty empty 17 7 0 10 -262144 -1 -1 0
1;
#X msg 187 66 0;
#X msg 218 66 1;
#X obj 154 14 r \$0-konsonator_seuraava;
#X obj 223 207 sel 12;
#X obj 279 194 s \$0-konsonator_loppu;
#X obj 187 46 r \$0-konsonator_loppu;
#X obj 77 -76 t b b b l;
#X obj 196 122 t b b;
#X obj 223 184 f;
#X obj 249 183 + 1;
#X msg 238 156 0;
#X msg 121 107 0;
#X obj 244 421 r \$0-konsonator_alkuperainen_skaala;
#X obj 111 -34 s \$0-konsonator_reset;
#X obj 299 122 r \$0-konsonator_reset;
#X obj 624 508 r \$0-konsonator_reset;
#X msg 624 531 clear;
#X obj 187 422 mod 12;
#X obj 313 272 s \$0-konsonator_savel;
#X obj 670 577 r \$0-konsonator_savel;
#X obj 442 599 f;
#X obj 337 500 f;
#X msg 478 410 1;
#X msg 56 653 print;
#X obj 187 314 summaa_intervallit;
#X msg 456 444 1;
#X obj 73 752 print;
#X floatatom 409 527 5 0 0 0 - - -;
#X text 481 147 vältettävät:;
#X text 499 160 sama savel;
#X text 615 143 toivottavat:;
#X text 638 157 viidennet;
#X obj 404 580 moses 4;
#X obj 303 448 del 2;
#X obj 192 -69 list-map;
#X obj 249 -70 mod 12;
#X obj 154 209 sel 21;
#X obj 442 642 h_multimap konsonator_skoret;
#X obj 627 674 r \$0-konsonator_reset;
#X msg 627 697 clear;
#X obj 328 782 -;
#X msg 443 766 add \$1;
#X obj 74 -181 t b l;
#X obj 74 -103 l;
#X obj 74 -139 del 1500;
#X msg -20 42 2 4 5 7 9 11 13;
#X obj 63 687 h_multimap konsonator_falet;
#X obj 444 787 h_multimap konsonator_falet;
#X obj 257 -33 s \$0-konsonator_alkuperainen_skaala;
#X obj 328 762 f;
#X obj 328 691 t b f;
#X obj 343 726 r \$0-konsonator_alkuperainen_skaala;
#X obj 343 744 list-len;
#X obj 120 -7 del 200;
#X obj 360 630 del 2;
#X connect 0 0 12 0;
#X connect 0 1 1 0;
#X connect 1 0 0 1;
#X connect 2 0 50 0;
#X connect 3 0 4 0;
#X connect 3 0 62 0;
#X connect 4 0 3 1;
#X connect 5 0 3 1;
#X connect 6 0 68 0;
#X connect 7 0 19 0;
#X connect 8 0 17 0;
#X connect 9 0 11 0;
#X connect 9 0 14 0;
#X connect 10 0 13 0;
#X connect 10 0 47 1;
#X connect 12 0 43 0;
#X connect 12 1 48 0;
#X connect 12 1 59 0;
#X connect 13 0 10 1;
#X connect 14 0 10 0;
#X connect 15 0 0 0;
#X connect 16 0 63 1;
#X connect 16 0 73 1;
#X connect 17 0 1 1;
#X connect 17 1 44 0;
#X connect 19 0 2 0;
#X connect 19 1 18 0;
#X connect 20 0 16 0;
#X connect 21 0 63 0;
#X connect 22 0 80 0;
#X connect 22 1 58 0;
#X connect 24 0 3 0;
#X connect 25 0 24 1;
#X connect 26 0 25 0;
#X connect 27 0 25 0;
#X connect 28 0 24 0;
#X connect 29 0 30 0;
#X connect 29 1 8 0;
#X connect 31 0 26 0;
#X connect 32 1 79 0;
#X connect 32 2 39 0;
#X connect 32 3 60 0;
#X connect 33 0 37 0;
#X connect 33 1 34 0;
#X connect 34 0 35 0;
#X connect 34 0 29 0;
#X connect 35 0 34 1;
#X connect 36 0 34 0;
#X connect 37 0 3 0;
#X connect 38 0 9 1;
#X connect 40 0 36 0;
#X connect 40 0 5 0;
#X connect 40 0 27 0;
#X connect 41 0 42 0;
#X connect 41 0 51 0;
#X connect 42 0 63 0;
#X connect 43 0 9 0;
#X connect 45 0 16 1;
#X connect 46 0 21 0;
#X connect 47 0 53 0;
#X connect 47 0 22 0;
#X connect 48 0 10 1;
#X connect 49 0 72 0;
#X connect 50 0 15 0;
#X connect 51 0 10 1;
#X connect 58 0 76 0;
#X connect 58 1 46 0;
#X connect 59 0 47 0;
#X connect 60 0 74 0;
#X connect 60 1 61 0;
#X connect 61 0 60 1;
#X connect 62 0 33 0;
#X connect 62 1 7 0;
#X connect 64 0 65 0;
#X connect 65 0 73 0;
#X connect 66 0 67 0;
#X connect 67 0 73 0;
#X connect 68 0 70 0;
#X connect 68 1 69 1;
#X connect 69 0 32 0;
#X connect 70 0 69 0;
#X connect 71 0 32 0;
#X connect 72 0 52 0;
#X connect 75 0 66 0;
#X connect 76 0 75 0;
#X connect 76 1 66 1;
#X connect 77 0 78 0;
#X connect 78 0 75 1;
#X connect 79 0 24 0;
#X connect 80 0 23 0;
