#N canvas 660 403 450 300 10;
#X obj -73 28 inlet;
#X obj 4 29 inlet;
#X obj -30 134 mod 12;
#X obj -30 160 outlet;
#X floatatom 103 104 5 0 0 0 - - -;
#X floatatom 149 104 5 0 0 0 - - -;
#X text 138 104 /;
#X obj 87 78 f;
#X msg -134 97 0;
#X obj -132 77 loadbang;
#X obj -30 109 +;
#X msg -73 47 -1;
#X msg 4 49 1;
#X obj 87 58 \$1;
#X obj 130 77 - 1;
#X obj 132 19 inlet;
#X text 167 19 arvon suora asettaminen;
#X connect 0 0 11 0;
#X connect 1 0 12 0;
#X connect 2 0 3 0;
#X connect 2 0 4 0;
#X connect 2 0 10 1;
#X connect 7 0 2 1;
#X connect 7 0 14 0;
#X connect 8 0 2 0;
#X connect 9 0 8 0;
#X connect 9 0 13 0;
#X connect 10 0 2 0;
#X connect 11 0 10 0;
#X connect 12 0 10 0;
#X connect 13 0 7 0;
#X connect 14 0 5 0;
#X connect 15 0 10 1;
#X coords 0 -1 1 1 85 24 2 100 100;
