#N canvas 0 24 1257 666 10;
#X obj 573 233 hertsitulostin;
#X obj 710 111 cnv 15 32 24 empty \$0-tulostus_nykyinen_osa_savel_tulostus_tiirailu
A- 2 12 0 14 -262144 -66577 0;
#X obj 742 112 cnv 15 200 24 empty \$0-tulostus_nykyinen_osa_skaala_tulostus_tiirailu
jooninen 2 12 0 14 -262144 -66577 0;
#X text -55 1195 \$0-tulostus_nykyinen_osa_savel;
#X text -54 1207 \$0-tulostus_nykyinen_osa_skaala;
#X obj 126 1445 l;
#X obj 127 1471 list-map;
#X floatatom 215 1435 5 0 0 0 - - -;
#X obj 174 1212 r \$0-nykyinen_osa_skaala;
#X obj 327 1211 r \$0-nykyinen_osa_savel;
#X obj 114 1352 skaala_nimi;
#X obj 114 1395 s \$0-tulostus_nykyinen_osa_skaala;
#X msg 114 1375 label \$1;
#X obj 37 1512 print listmap;
#X text 604 532 E;
#X text 603 515 A;
#X text 604 498 D;
#X text 604 482 G;
#X text 604 464 B;
#X text 604 446 E;
#X text 147 1445 SKAALA;
#X text 92 1391 POHJAÄÄNI TRANSPON;
#X floatatom 618 998 5 0 27 0 - - -;
#X floatatom 700 998 5 0 12 0 - - -;
#X obj 174 1235 skaala_intervallit;
#X obj 174 1255 summaa_intervallit;
#X obj 568 454 koskettimet;
#X obj 613 450 otelauta_oktaavi2;
#X obj 626 938 h_map \$0-osat;
#X msg 626 918 get \$1;
#X obj 748 865 laskuri 64;
#X obj 673 107 bng 24 250 50 0 \$0-tilaa_seuraava_osa_tiirailu empty
empty 17 7 0 10 -262144 -1 -1;
#X obj 610 107 bng 24 250 50 0 \$0-tilaa_edellinen_osa_tiirailu empty
empty 17 7 0 10 -262144 -1 -1;
#X obj 610 107 cnv 24 24 24 \$0-edellinen_osa empty << 0 12 0 20 -262144
-66577 0;
#X obj 673 107 cnv 24 24 24 \$0-seuraava_osa empty >> 0 12 0 20 -262144
-66577 0;
#N canvas 0 0 450 300 lisaa_osa 0;
#X obj 58 93 r \$0-osan_numero;
#X obj 181 115 f;
#X obj 281 115 t b f;
#X obj 181 141 pack f f;
#X obj 115 214 h_map \$0-osat;
#X obj 70 150 f;
#X obj 163 170 t b l;
#X obj 58 214 del 1500;
#X obj 58 235 s \$0-uusi_osa;
#X msg 70 172 add \$1;
#X text 86 24 valitsimet lisäävät osan joko suoraan kun käyttämättömän
osan numero valitaan tai sitten kun semmoinen erikseen syötetään klikkaamalla
osan numeroa;
#X obj 58 114 t f b;
#X obj 280 94 r \$0-osan_savel;
#X obj 181 94 r \$0-osan_skaala;
#X msg 306 223 print;
#X obj 379 155 loadbang;
#X msg 379 179 0;
#X connect 0 0 11 0;
#X connect 1 0 3 0;
#X connect 2 0 1 0;
#X connect 2 1 3 1;
#X connect 3 0 6 0;
#X connect 5 0 9 0;
#X connect 6 0 5 0;
#X connect 6 1 4 1;
#X connect 7 0 8 0;
#X connect 9 0 4 0;
#X connect 11 0 5 0;
#X connect 11 1 1 0;
#X connect 11 1 7 0;
#X connect 12 0 2 0;
#X connect 13 0 1 0;
#X connect 14 0 4 0;
#X connect 15 0 16 0;
#X connect 16 0 3 1;
#X connect 16 0 1 1;
#X connect 16 0 5 1;
#X restore 1101 742 pd lisaa_osa;
#N canvas 0 0 450 300 saveltimelta 0;
#X obj 6 14 r \$0-osan_numero;
#X obj 129 15 r \$0-osan_savel;
#X obj 229 15 r \$0-osan_skaala;
#X text 127 27 näiden muuttaminen päivittää osalistauksen. Järjestysnumeron
muuttaminen ei sitä tee.;
#X obj 1 91 s \$0-konsonanssit;
#X text 115 93 lista jossa 12 arvoa \, kukin 0 - 1 \, siten että kaikki
yhteenlaskettuna on 1;
#X restore 1179 742 pd saveltimelta;
#N canvas 0 0 450 300 laske_konsonanssit 0;
#X obj 63 200 /;
#X msg 61 112 values;
#X msg 115 112 get \$1;
#X obj 63 229 serialize 12;
#X obj 63 253 s \$0-konsonanssit;
#X obj 226 167 r \$0-savelet_lkm_yht;
#X obj 61 143 h_map \$0-savelet_lkm;
#X obj 231 234 print;
#X obj 226 188 t b;
#X obj 226 209 del 2000;
#X connect 0 0 3 0;
#X connect 1 0 6 0;
#X connect 2 0 6 0;
#X connect 3 0 4 0;
#X connect 3 0 7 0;
#X connect 5 0 0 1;
#X connect 5 0 8 0;
#X connect 6 0 0 0;
#X connect 8 0 9 0;
#X connect 9 0 1 0;
#X restore 1275 742 pd laske_konsonanssit;
#N canvas 0 24 1257 666 valitsimet 1;
#X obj 138 182 laskuri 12;
#X obj 59 150 laskuri 25;
#X obj 416 100 bng 24 250 50 0 empty empty empty 17 7 0 10 -262144
-1 -1;
#X obj 416 100 cnv 24 24 24 \$0-seuraava_osa empty >> 0 12 0 20 -262144
-66577 0;
#X obj 125 100 cnv 15 120 24 empty \$0-valitsimet_atm_skaala fryyginen
3 12 0 14 -262144 -66577 0;
#X obj 317 100 bng 24 250 50 0 empty empty empty 17 7 0 10 -262144
-1 -1;
#X obj 321 100 cnv 24 24 24 \$0-seuraava_osa empty >> 0 12 0 20 -262144
-66577 0;
#X obj 360 100 bng 24 250 50 0 empty empty 1 17 9 0 10 -262144 -1 -1
;
#X obj 360 100 cnv 24 24 24 \$0-edellinen_osa empty << 0 12 0 20 -262144
-66577 0;
#X obj 292 100 cnv 15 30 24 empty \$0-valitsimet_atm_savel B- 6 12
0 14 -262144 -66577 0;
#X obj 232 100 bng 24 250 50 0 empty empty empty 17 7 0 10 -262144
-1 -1;
#X obj 232 100 cnv 24 24 24 \$0-seuraava_osa empty >> 0 12 0 20 -262144
-66577 0;
#X obj 270 100 bng 24 250 50 0 empty empty empty 17 7 0 10 -262144
-1 -1;
#X obj 270 100 cnv 24 24 24 \$0-edellinen_osa empty << 0 12 0 20 -262144
-66577 0;
#X obj 100 100 bng 24 250 50 0 empty empty empty 17 7 0 10 -262144
-1 -1;
#X obj 100 100 cnv 24 24 24 \$0-edellinen_osa empty << 0 12 0 20 -262144
-66577 0;
#X obj 385 100 cnv 15 30 24 empty \$0-tulostimen_atm_osa 22 3 12 0
12 -262144 -66577 0;
#X obj 220 211 laskuri 64;
#X msg -271 174 label \$1;
#X obj -271 192 s \$0-valitsimet_atm_skaala;
#X obj -270 213 m2n;
#X msg -270 231 label \$1;
#X msg -270 307 label \$1;
#X obj -270 325 s \$0-tulostimen_atm_osa;
#X obj -270 251 s \$0-valitsimet_atm_savel;
#X obj -270 290 ftos;
#X obj -271 156 skaala_nimi;
#X obj 68 654 outlet;
#X obj 68 630 pack f f f;
#X obj 645 160 s \$0-nykyinen_osa_skaala;
#X obj 717 183 s \$0-nykyinen_osa_savel;
#X floatatom 644 133 5 0 27 0 - - -;
#X floatatom 719 129 5 0 12 0 - - -;
#X obj 652 73 h_map \$0-osat;
#X msg 652 53 get \$1;
#X obj 640 18 laskuri 64;
#X obj 783 -36 r \$0-tilaa_seuraava_osa;
#X obj 631 -35 r \$0-tilaa_edellinen_osa;
#X obj -270 270 f;
#X obj 524 383 f;
#X obj 573 385 f;
#X obj 495 299 h_map \$0-osat;
#X msg 495 279 get \$1;
#X msg 524 493 label \$1;
#X obj 524 513 s \$0-valitsimet_atm_skaala;
#X msg 574 429 label \$1;
#X obj 574 449 s \$0-valitsimet_atm_savel;
#X obj 524 473 skaala_nimi;
#X msg 695 332 symbol --;
#X msg 695 312 symbol --------;
#X text 581 343 Tulostaa osan tiedot \, ja vastaavasti tyhjää jos tietoja
ei ole;
#X obj 1086 30 f;
#X obj 1162 27 f;
#X obj 1268 27 f;
#X obj 118 505 f;
#X obj 94 505 f;
#X msg 255 367 0;
#X obj 255 343 loadbang;
#X obj 255 387 t f f f;
#X obj 573 410 m2n;
#X obj 70 505 f;
#X text 64 673 numero skaala savel;
#X obj -81 428 tgl 15 0 empty empty osa_muokattu 17 7 0 10 -262144
-1 -1 1 1;
#X obj -114 447 spigot;
#X obj 505 348 unpack f f f;
#X msg -60 408 0;
#X msg -28 411 1;
#X obj 59 220 t f b;
#X obj 140 219 t f b;
#X obj -116 319 t b f b;
#X obj -114 397 f;
#X text -92 395 edellisen osan nro;
#X obj 497 321 t b b l l;
#X obj 652 96 unpack f f f;
#X obj -114 584 h_map \$0-osat;
#X msg -114 564 add \$1;
#X obj 221 240 t f f f b b;
#X obj 469 255 t f f;
#X obj -114 512 t f f;
#X obj -39 564 pack f f f;
#X connect 0 0 20 0;
#X connect 0 0 68 0;
#X connect 1 0 26 0;
#X connect 1 0 67 0;
#X connect 2 0 17 1;
#X connect 5 0 0 1;
#X connect 7 0 17 0;
#X connect 10 0 1 1;
#X connect 12 0 0 0;
#X connect 14 0 1 0;
#X connect 17 0 38 0;
#X connect 17 0 76 0;
#X connect 18 0 19 0;
#X connect 20 0 21 0;
#X connect 21 0 24 0;
#X connect 22 0 23 0;
#X connect 25 0 22 0;
#X connect 26 0 18 0;
#X connect 28 0 27 0;
#X connect 31 0 29 0;
#X connect 32 0 30 0;
#X connect 33 0 73 0;
#X connect 34 0 33 0;
#X connect 35 0 34 0;
#X connect 36 0 35 1;
#X connect 37 0 35 0;
#X connect 38 0 25 0;
#X connect 39 0 47 0;
#X connect 39 0 55 0;
#X connect 40 0 59 0;
#X connect 40 0 54 0;
#X connect 41 0 72 0;
#X connect 41 2 66 0;
#X connect 42 0 41 0;
#X connect 43 0 44 0;
#X connect 45 0 46 0;
#X connect 47 0 43 0;
#X connect 48 0 45 0;
#X connect 49 0 43 0;
#X connect 54 0 28 2;
#X connect 54 0 79 2;
#X connect 55 0 28 1;
#X connect 55 0 79 1;
#X connect 56 0 58 0;
#X connect 56 0 70 1;
#X connect 56 0 62 0;
#X connect 57 0 56 0;
#X connect 58 0 60 1;
#X connect 58 1 55 1;
#X connect 58 2 54 1;
#X connect 59 0 45 0;
#X connect 60 0 28 0;
#X connect 62 0 63 1;
#X connect 63 0 78 0;
#X connect 64 1 39 1;
#X connect 64 1 1 2;
#X connect 64 2 0 2;
#X connect 64 2 40 1;
#X connect 65 0 62 0;
#X connect 66 0 62 0;
#X connect 67 0 55 0;
#X connect 67 1 66 0;
#X connect 67 1 28 0;
#X connect 68 0 54 0;
#X connect 68 1 66 0;
#X connect 68 1 28 0;
#X connect 69 0 65 0;
#X connect 69 1 70 1;
#X connect 69 2 70 0;
#X connect 70 0 63 0;
#X connect 72 0 39 0;
#X connect 72 1 40 0;
#X connect 72 2 64 0;
#X connect 72 3 27 0;
#X connect 73 1 31 0;
#X connect 73 2 32 0;
#X connect 75 0 74 0;
#X connect 76 1 77 0;
#X connect 76 2 69 0;
#X connect 77 0 60 0;
#X connect 77 1 42 0;
#X connect 78 0 75 0;
#X connect 78 1 79 0;
#X connect 79 0 74 1;
#X coords 0 -1 1 1 340 24 1 100 100;
#X restore 75 104 pd valitsimet;
#N canvas 0 0 450 300 laske_konsonanssi 0;
#X obj 258 47 r \$0-konsonanssit;
#X obj 230 128 list-minmax;
#X obj 135 132 packel;
#X obj 135 63 inlet;
#X obj 162 109 f;
#X obj 258 70 t l l;
#X obj 305 195 /;
#X obj 293 152 t b f;
#X msg 292 174 1;
#X obj 135 109 l;
#X obj 135 83 t b f;
#X obj 135 159 *;
#X obj 135 206 outlet;
#X text 136 16 palauttaa yksittäisen äänen konsonanssin (0 - 1);
#X connect 0 0 5 0;
#X connect 1 1 7 0;
#X connect 2 0 11 0;
#X connect 3 0 10 0;
#X connect 4 0 2 1;
#X connect 5 0 1 0;
#X connect 5 1 9 1;
#X connect 6 0 11 1;
#X connect 7 0 8 0;
#X connect 7 1 6 1;
#X connect 8 0 6 0;
#X connect 9 0 2 0;
#X connect 10 0 9 0;
#X connect 10 1 4 0;
#X connect 11 0 12 0;
#X restore 1407 742 pd laske_konsonanssi;
#N canvas 1168 343 450 570 laske_savelet 0;
#X obj 64 11 r \$0-uusi_osa;
#X msg 378 194 0;
#X msg 278 196 add \$1;
#X obj 245 134 f;
#X obj 270 134 + 1;
#X obj 245 155 sel 12;
#X obj 278 176 t f b;
#X obj 64 31 t b b;
#X msg 211 103 stop;
#X obj 245 84 t b b;
#X msg 310 101 0;
#X obj 278 216 h_map \$0-savelet_lkm;
#X obj 245 66 bng 15 250 50 0 empty empty empty 17 7 0 10 -262144 -1
-1;
#X obj 245 103 metro 1;
#X obj 52 104 h_map \$0-osat;
#X msg 52 84 values;
#X obj 29 155 skaala_intervallit;
#X obj 29 134 unpack f f;
#X obj 29 175 summaa_intervallit_pohja-aanella;
#X obj 29 197 list-drip;
#X obj 29 217 mod 12;
#X obj 57 282 h_map \$0-savelet_lkm;
#X msg 57 262 get \$1;
#X obj 57 308 f;
#X msg 26 339 add \$1;
#X obj 57 329 + 1;
#X obj 27 361 h_map \$0-savelet_lkm;
#X obj 27 403 print;
#X obj 26 301 f;
#X obj 52 64 del 50;
#X obj 30 239 t f f;
#N canvas 0 0 450 300 alustus 0;
#X msg 802 301 0;
#X msg 845 382 0;
#X obj 787 420 h_map \$0-savelet_lkm;
#X obj 787 365 t f b;
#X obj 787 331 f;
#X obj 813 330 + 1;
#X obj 755 263 metro 40;
#X msg 695 282 stop;
#X obj 764 184 t b b;
#X obj 765 158 loadbang;
#X obj 695 261 sel 12;
#X msg 785 391 add \$1;
#X connect 0 0 4 1;
#X connect 1 0 2 1;
#X connect 3 0 11 0;
#X connect 3 1 1 0;
#X connect 4 0 5 0;
#X connect 4 0 10 0;
#X connect 5 0 4 1;
#X connect 6 0 4 0;
#X connect 7 0 6 0;
#X connect 8 0 6 0;
#X connect 8 1 0 0;
#X connect 9 0 8 0;
#X connect 10 0 7 0;
#X connect 10 1 3 0;
#X connect 11 0 2 0;
#X restore 351 20 pd alustus;
#X connect 0 0 7 0;
#X connect 1 0 11 1;
#X connect 2 0 11 0;
#X connect 3 0 4 0;
#X connect 3 0 5 0;
#X connect 4 0 3 1;
#X connect 5 0 8 0;
#X connect 5 1 6 0;
#X connect 6 0 2 0;
#X connect 6 1 1 0;
#X connect 7 0 29 0;
#X connect 7 1 12 0;
#X connect 8 0 13 0;
#X connect 9 0 13 0;
#X connect 9 1 10 0;
#X connect 10 0 3 1;
#X connect 12 0 9 0;
#X connect 13 0 3 0;
#X connect 14 0 17 0;
#X connect 15 0 14 0;
#X connect 16 0 18 0;
#X connect 17 0 16 0;
#X connect 17 1 18 1;
#X connect 18 0 19 0;
#X connect 19 0 20 0;
#X connect 20 0 30 0;
#X connect 21 0 23 0;
#X connect 22 0 21 0;
#X connect 23 0 25 0;
#X connect 24 0 26 0;
#X connect 25 0 26 1;
#X connect 26 0 27 0;
#X connect 28 0 24 0;
#X connect 29 0 15 0;
#X connect 30 0 28 0;
#X connect 30 1 22 0;
#X restore 1599 742 pd laske_savelet;
#X obj 1279 906 del 1500;
#X obj 1532 775 print;
#X obj -86 1472 s \$0-tulostin_skaala_transponoitu;
#X obj 1303 859 r \$0-tulostin_skaala_transponoitu;
#X obj 1303 880 t b l;
#X obj 1295 923 l;
#X msg 1358 910 2;
#X obj 76 267 soska;
#X obj 1129 829 r \$0-nykyinen_osa_savel;
#X obj 1291 824 h_map \$0-osat;
#X obj 756 1251 unpack f f f;
#X obj 681 1279 s \$0-osan_numero;
#X obj 785 1277 s \$0-osan_skaala;
#X obj 899 1278 s \$0-osan_savel;
#X floatatom 749 1301 5 0 0 0 - - -;
#X floatatom 790 1299 5 0 0 0 - - -;
#X floatatom 827 1298 5 0 0 0 - - -;
#X obj 1128 857 r \$0-nykyinen_osa_savel;
#X obj -132 261 bng 15 250 50 0 empty empty empty 17 7 0 10 -262144
-1 -1;
#X obj 39 1535 konsonator;
#X obj 1533 742 konsonator;
#X obj -132 242 r \$0-soska_paivitys;
#X obj 127 1545 list-map;
#X obj 182 1545 + 0;
#X obj 647 3 bng 24 250 50 0 empty empty empty 17 7 0 10 -262144 -1
-1;
#X obj 647 3 cnv 24 24 24 \$0-seuraava_osa empty >> 0 12 0 20 -262144
-66577 0;
#X obj 329 4 bng 24 250 50 0 empty empty empty 17 7 0 10 -262144 -1
-1;
#X obj 329 4 cnv 24 24 24 \$0-edellinen_osa empty << 0 12 0 20 -262144
-66577 0;
#X obj -186 211 laskuri 12;
#X msg -124 344 label \$1;
#X floatatom 636 115 5 0 0 0 - - -;
#X obj 100 194 iv-tulostin_transvari;
#X obj 1244 794 h_map \$0-soinnut;
#X text 1348 794 listoja \, jotka tulostetaan rns-tulostimella \, mahdollisuus
myös sekkariksi;
#X text 1057 29 TEE: -rns-tulostin -korjaa väritulostimet -> TOINEN
ON N+1;
#X obj 1358 930 list-add;
#X obj 118 851 unpack f f f;
#X floatatom 333 852 5 0 0 0 - - -;
#X floatatom 374 850 5 0 0 0 - - -;
#X floatatom 411 849 5 0 0 0 - - -;
#X obj 118 813 del 400;
#X obj 118 794 t b l;
#X obj 118 832 l;
#X obj -115 59 s \$0-nykyinen_osa;
#X obj 118 775 r \$0-nykyinen_osa;
#X obj 13 879 s \$0-nykyinen_osa_nro;
#X obj 145 879 s \$0-nykyinen_osa_skaala;
#X obj 295 879 s \$0-nykyinen_osa_savel;
#X obj -150 316 m2n;
#X obj -45 1135 s \$0-nykyinen_osa_skaala;
#X obj 27 1158 s \$0-nykyinen_osa_savel;
#X floatatom -46 1108 5 0 27 0 - - -;
#X floatatom 26 1111 5 0 12 0 - - -;
#X obj -46 1060 h_map \$0-osat;
#X msg -46 1040 get \$1;
#X obj -46 987 laskuri 64;
#X obj 129 1013 s \$0-soska_paivitys;
#X obj 786 826 r \$0-tilaa_edellinen_osa_tiirailu;
#X obj 787 846 r \$0-tilaa_seuraava_osa_tiirailu;
#X obj 545 998 skaala_nimi;
#X obj 675 998 m2n;
#X obj 1109 1042 l;
#X obj 1372 1131 list-map;
#X obj 1109 1000 skaala_intervallit;
#X obj 1109 1020 summaa_intervallit;
#X obj 1109 979 f;
#X obj 1240 979 t b f;
#X obj -91 1242 s \$0-tulostus_skaala_raaka_tulostus;
#X obj -226 142 r \$0-tulostus_skaala_raaka_tulostus;
#X obj -90 1262 s \$0-tulostus_skaala_tulostus;
#X obj -190 161 r \$0-tulostus_skaala_tulostus;
#X obj -214 180 r \$0-tulostin_skaala_transponoitu;
#X obj 355 2 iv-tulostin_transvari;
#X obj -70 199 l;
#X obj -46 199 t b f;
#X text 207 1543 MODULAATIO;
#X obj 1189 1172 s \$0-tulostin_skaala_transponoitu_tiirailu;
#X obj 1043 430 r \$0-tulostin_skaala_transponoitu_tiirailu;
#X obj 971 513 bng 15 250 50 0 empty empty empty 17 7 0 10 -262144
-1 -1;
#X obj 1557 361 h_map \$0-osat;
#X obj 680 1130 s \$0-tulostus_nykyinen_osa_savel_tulostus_tiirailu
;
#X obj 399 1157 s \$0-tulostus_nykyinen_osa_skaala_tulostus_tiirailu
;
#X msg 539 1109 label \$1;
#X msg 681 1104 label \$1;
#X obj 1557 262 savepanel;
#X obj 1450 1096 f;
#X obj 215 1450 f;
#X obj 183 1471 + 0;
#X obj 609 137 iv-tulostin;
#X obj 467 32 cnv 15 30 30 empty \$0-basstone-note E- 12 15 0 14 -191407
-66577 0;
#X obj 99 161 iv-tulostin;
#X obj 99 133 iv-tulostin;
#X obj 760 450 otelauta_oktaavi2;
#X msg 1557 340 saveXML \$1;
#X obj 969 547 bng 15 250 50 0 empty empty empty 17 7 0 10 -262144
-1 -1;
#X obj 1403 254 openpanel;
#X text 887 529 Tallenna nimellä;
#X text 935 560 Tallenna;
#X obj 1484 140 symbol;
#X obj 971 614 bng 15 250 50 0 empty empty empty 17 7 0 10 -262144
-1 -1;
#X text 955 626 Lataa;
#X obj 1399 361 h_map \$0-osat;
#X obj 1399 297 symbol;
#X msg 1399 339 readXML \$1;
#X obj 1557 307 symbol;
#X obj 1557 286 makefilename %s.xml;
#X obj 1457 118 t b b;
#X obj 1289 141 select symbol;
#X obj 1364 120 symbol;
#X obj 1364 101 loadbang;
#X obj 1457 88 r \$0-tallenna;
#X obj 1005 615 s \$0-tallenna;
#X obj 1005 594 s \$0-tallenna_nimella;
#X obj 1288 199 s \$0-tallenna_nimella;
#X obj 1557 241 r \$0-tallenna_nimella;
#X obj 1007 640 s \$0-lataa;
#X obj 1403 234 r \$0-lataa;
#X text 1526 138 tämänhetkinen tiedostonimi \, vertailu;
#X obj 1451 163 symbol;
#X obj 1331 88 bng 15 250 50 0 empty empty empty 17 7 0 10 -262144
-1 -1;
#X obj 1372 1151 s \$0-tulostin_skaala_transponoitu_vertailu;
#X obj 609 165 iv-tulostin;
#X obj 1042 47 r \$0-tulostin_skaala_transponoitu_vertailu;
#X obj -124 364 s \$0-basstone-note;
#X obj -203 412 s \$0-basstone;
#X obj 1446 1042 r \$0-basstone;
#X obj 1446 1065 t b f;
#X obj 1346 1131 l;
#X obj 770 907 s \$0-tulosta_osa_tiirailu;
#X obj 1189 1058 list-map;
#X obj 1252 1058 + 0;
#X obj 1109 1197 s \$0-tulostin_skaala_tiirailu;
#X obj 1001 148 r \$0-tulostin_skaala_tiirailu;
#X obj 973 665 bng 15 250 50 0 empty empty empty 17 7 0 10 -262144
-1 -1;
#X text 903 678 Lataa ja lisää;
#X obj 1009 691 s \$0-lataa_ja_lisaa;
#X msg 1476 339 clear;
#X obj 1190 270 openpanel;
#X obj 1190 360 h_map \$0-osat;
#X obj 1190 291 symbol;
#X msg 1190 338 readXML \$1;
#X obj 1190 250 r \$0-lataa_ja_lisaa;
#X obj 1234 314 t s b;
#X msg 1261 338 getsize;
#X floatatom 1325 392 5 0 0 0 - - -;
#X obj 1393 451 f;
#X obj 1486 443 + 1;
#X obj 1460 391 loadbang;
#X msg 1559 419 set;
#X obj 1312 413 t b f;
#X obj 428 541 cnv 20 400 20 empty osainfo1 pituus_0 10 10 0 14 -228856
-66577 0;
#X text 422 704 ylläoleva ottaa vastaan ladattujen tiedostojen sisältämien
osien määrän.;
#X msg 1441 421 1;
#X obj 428 566 cnv 20 400 20 empty osainfo2 pituus_0 10 10 0 14 -228856
-66577 0;
#X obj 428 591 cnv 20 400 20 empty osainfo3 pituus_0 7 10 0 14 -228856
-66577 0;
#X obj 428 616 cnv 20 400 20 empty osainfo4 pituus_0 7 10 0 14 -228856
-66577 0;
#X obj 1393 471 makefilename osainfo%d;
#X msg 1403 954 add2 \$1;
#X msg 1227 486 set pituus;
#X obj 1188 459 t b f b;
#X msg 1207 509 add2 \$1;
#X msg 1177 530 pituus 0;
#X obj 1266 545 tosymbol;
#X msg 1359 519 add2 label;
#X obj 1359 403 t f b b b b;
#X msg 1392 491 add2 \$1;
#X msg 1447 491 add;
#X msg 1159 581 separator _;
#X obj 1159 561 loadbang;
#X msg 1271 568 add2 \$1;
#X msg 1339 597;
#X obj 1558 396 loadbang;
#X obj 1372 318 t b s;
#X msg 1345 339 getsize;
#X obj 1626 491 until;
#X msg 1626 469 4;
#X msg 1626 513 0;
#X obj 1401 276 t s b b;
#X obj -70 918 r \$0-tilaa_edellinen_osa_tiirailu;
#X obj -7 950 r \$0-tilaa_seuraava_osa_tiirailu;
#X obj 1435 1131 - 0;
#X floatatom -160 513 5 0 0 0 - - -;
#X obj -216 316 f;
#X obj 129 992 del 300;
#X obj 327 1394 s \$0-tulostus_nykyinen_osa_savel;
#X msg 327 1373 label \$1;
#X obj 327 1352 m2n;
#X msg 768 1076 symbol --;
#X msg 566 1070 symbol --------;
#X obj 539 1043 t s b;
#X obj -46 1083 unpack f f f;
#X obj 624 962 unpack f f f;
#X obj 681 1045 t s b;
#X symbolatom 788 1037 10 0 0 0 - - -;
#X connect 5 0 6 0;
#X connect 6 0 13 0;
#X connect 6 0 43 0;
#X connect 6 0 60 0;
#X connect 6 0 63 0;
#X connect 6 1 128 0;
#X connect 7 0 127 0;
#X connect 8 0 24 0;
#X connect 8 0 10 0;
#X connect 9 0 7 0;
#X connect 9 0 227 0;
#X connect 10 0 12 0;
#X connect 12 0 11 0;
#X connect 22 0 106 0;
#X connect 23 0 107 0;
#X connect 24 0 25 0;
#X connect 24 0 108 0;
#X connect 25 0 5 0;
#X connect 25 0 110 0;
#X connect 28 0 232 0;
#X connect 28 2 228 0;
#X connect 28 2 229 0;
#X connect 29 0 28 0;
#X connect 30 0 29 0;
#X connect 30 0 71 0;
#X connect 30 0 169 0;
#X connect 38 0 84 0;
#X connect 41 0 46 0;
#X connect 44 0 45 0;
#X connect 45 0 41 0;
#X connect 45 1 46 1;
#X connect 51 0 52 0;
#X connect 51 0 55 0;
#X connect 51 1 53 0;
#X connect 51 1 56 0;
#X connect 51 2 54 0;
#X connect 51 2 57 0;
#X connect 59 0 48 0;
#X connect 62 0 59 0;
#X connect 63 1 64 0;
#X connect 64 0 63 1;
#X connect 65 0 69 1;
#X connect 67 0 69 0;
#X connect 69 0 72 1;
#X connect 69 0 89 0;
#X connect 69 0 113 1;
#X connect 69 0 223 0;
#X connect 70 0 164 0;
#X connect 77 0 78 0;
#X connect 77 0 86 0;
#X connect 77 1 79 0;
#X connect 77 1 87 0;
#X connect 77 2 80 0;
#X connect 77 2 88 0;
#X connect 81 0 83 0;
#X connect 82 0 81 0;
#X connect 82 1 83 1;
#X connect 83 0 77 0;
#X connect 85 0 82 0;
#X connect 89 0 70 0;
#X connect 92 0 90 0;
#X connect 93 0 91 0;
#X connect 94 0 231 0;
#X connect 95 0 94 0;
#X connect 96 0 95 0;
#X connect 98 0 30 0;
#X connect 99 0 30 1;
#X connect 100 0 230 0;
#X connect 101 0 233 0;
#X connect 101 0 234 0;
#X connect 102 0 168 0;
#X connect 102 0 170 0;
#X connect 102 0 172 0;
#X connect 103 0 161 0;
#X connect 103 1 221 0;
#X connect 104 0 105 0;
#X connect 105 0 102 0;
#X connect 106 0 104 0;
#X connect 107 1 171 1;
#X connect 109 0 132 0;
#X connect 111 0 114 0;
#X connect 111 0 131 0;
#X connect 112 0 72 0;
#X connect 114 0 113 0;
#X connect 115 0 114 0;
#X connect 115 1 113 1;
#X connect 115 1 69 2;
#X connect 118 0 0 0;
#X connect 118 0 27 0;
#X connect 118 0 26 0;
#X connect 118 0 133 0;
#X connect 119 0 153 0;
#X connect 123 0 122 0;
#X connect 124 0 121 0;
#X connect 125 0 146 0;
#X connect 126 0 221 1;
#X connect 127 0 128 1;
#X connect 128 0 6 1;
#X connect 134 0 120 0;
#X connect 135 0 152 0;
#X connect 136 0 218 0;
#X connect 139 0 159 1;
#X connect 139 0 148 0;
#X connect 140 0 156 0;
#X connect 142 1 185 0;
#X connect 143 0 213 0;
#X connect 144 0 142 0;
#X connect 145 0 139 1;
#X connect 145 0 134 0;
#X connect 146 0 145 0;
#X connect 147 1 139 0;
#X connect 148 0 154 0;
#X connect 148 1 159 0;
#X connect 149 0 148 1;
#X connect 150 0 149 0;
#X connect 151 0 147 0;
#X connect 155 0 125 0;
#X connect 157 0 136 0;
#X connect 159 0 134 0;
#X connect 160 0 149 0;
#X connect 163 0 162 0;
#X connect 166 0 167 0;
#X connect 167 0 168 0;
#X connect 167 1 126 0;
#X connect 168 0 103 0;
#X connect 170 0 117 0;
#X connect 170 1 171 0;
#X connect 171 0 170 1;
#X connect 173 0 129 0;
#X connect 174 0 176 0;
#X connect 177 0 142 0;
#X connect 178 0 180 0;
#X connect 179 1 185 0;
#X connect 180 0 183 0;
#X connect 181 0 179 0;
#X connect 182 0 178 0;
#X connect 183 0 181 0;
#X connect 183 1 184 0;
#X connect 184 0 179 0;
#X connect 185 0 190 0;
#X connect 186 0 187 0;
#X connect 186 0 197 0;
#X connect 187 0 186 1;
#X connect 188 0 193 0;
#X connect 189 0 211 0;
#X connect 190 0 211 0;
#X connect 190 1 205 0;
#X connect 193 0 186 1;
#X connect 197 0 206 0;
#X connect 199 0 202 0;
#X connect 200 0 202 0;
#X connect 200 1 201 0;
#X connect 200 2 199 0;
#X connect 201 0 202 0;
#X connect 202 0 203 0;
#X connect 203 0 210 0;
#X connect 204 0 211 0;
#X connect 205 0 200 0;
#X connect 205 2 204 0;
#X connect 205 3 186 0;
#X connect 205 4 207 0;
#X connect 206 0 211 0;
#X connect 207 0 211 0;
#X connect 208 0 203 0;
#X connect 209 0 208 0;
#X connect 210 0 211 0;
#X connect 212 0 189 0;
#X connect 213 0 214 0;
#X connect 213 1 144 0;
#X connect 214 0 142 0;
#X connect 215 0 217 0;
#X connect 216 0 215 0;
#X connect 217 0 190 0;
#X connect 218 0 143 0;
#X connect 218 1 177 0;
#X connect 218 1 189 0;
#X connect 218 1 193 0;
#X connect 218 2 216 0;
#X connect 219 0 96 0;
#X connect 219 0 224 0;
#X connect 220 0 96 1;
#X connect 220 0 224 0;
#X connect 221 0 103 1;
#X connect 223 0 165 0;
#X connect 223 0 222 0;
#X connect 224 0 97 0;
#X connect 226 0 225 0;
#X connect 227 0 226 0;
#X connect 228 0 124 0;
#X connect 229 0 123 0;
#X connect 230 0 123 0;
#X connect 230 1 229 0;
#X connect 231 1 92 0;
#X connect 231 2 93 0;
#X connect 232 1 22 0;
#X connect 232 1 100 0;
#X connect 232 2 101 0;
#X connect 232 2 23 0;
#X connect 233 0 124 0;
#X connect 233 1 228 0;
#X coords 0 -1 1 1 1000 700 2 0 0;
