#N canvas 234 97 450 443 10;
#X obj -21 184 demux 0 1 2 3 4 5 6 7 8 9 10 11;
#X obj -31 36 inlet;
#X obj 132 12 inlet;
#X text 164 12 pohja‰‰ni midinumerona;
#X obj -21 120 f;
#X text 4 33 monesko intervalli;
#X obj -21 164 mtof;
#X floatatom 295 100 5 0 0 0 - - -;
#X floatatom 312 155 5 0 0 0 - - -;
#X floatatom -107 141 12 0 0 0 - - -;
#X floatatom 149 153 12 0 0 0 - - -;
#X obj 293 230 outlet;
#X floatatom -94 115 5 0 0 0 - - -;
#X obj -1 98 t b f;
#X obj -76 275 expr $f1 *32.0/27;
#X obj -73 253 expr $f1 * 9.0/ 8;
#X obj -75 234 expr $f1 * 256.0/ 243;
#X obj -76 215 expr 1.0*$f1;
#X obj 33 220 expr $f1 *81.0/64;
#X obj 32 237 expr $f1 *2*2.0/3;
#X obj 32 278 expr $f1 *3.0/2;
#X obj 163 258 expr $f1 *16.0/9;
#X obj 162 240 expr $f1 * 27.0/16;
#X obj 161 208 expr $f1 * 128.0/81;
#X obj 86 62 sel 0;
#X obj 36 257 expr $f1 *1.413121;
#X obj 163 277 expr $f1 *243.0/128;
#X connect 0 0 17 0;
#X connect 0 1 16 0;
#X connect 0 2 15 0;
#X connect 0 3 14 0;
#X connect 0 4 18 0;
#X connect 0 5 19 0;
#X connect 0 6 25 0;
#X connect 0 7 20 0;
#X connect 0 8 23 0;
#X connect 0 9 22 0;
#X connect 0 10 21 0;
#X connect 0 11 26 0;
#X connect 1 0 13 0;
#X connect 2 0 24 0;
#X connect 4 0 7 0;
#X connect 4 0 6 0;
#X connect 6 0 0 0;
#X connect 6 0 10 0;
#X connect 13 0 4 0;
#X connect 13 1 0 1;
#X connect 13 1 8 0;
#X connect 14 0 11 0;
#X connect 15 0 11 0;
#X connect 15 0 9 0;
#X connect 15 0 12 0;
#X connect 16 0 11 0;
#X connect 17 0 11 0;
#X connect 18 0 11 0;
#X connect 18 0 9 0;
#X connect 19 0 11 0;
#X connect 20 0 11 0;
#X connect 21 0 11 0;
#X connect 22 0 11 0;
#X connect 23 0 11 0;
#X connect 24 1 4 1;
#X connect 25 0 11 0;
#X connect 26 0 11 0;
