#N canvas 275 362 883 317 10;
#X obj 503 166 symbol;
#X obj 319 -56 inlet;
#X obj 503 183 outlet;
#X obj 319 13 mod 12;
#X text 377 -56 ottaa argumenttina midinumeron ja tulostaa sen.;
#X obj 397 -6 route 0 1 2 3 4 5 6 7 8 9 10 11 4.23456;
#X msg 316 65 A- \;;
#X msg 347 65 A# \;;
#X msg 378 65 B- \;;
#X msg 411 65 C- \;;
#X msg 443 65 C# \;;
#X msg 472 65 D- \;;
#X msg 503 65 D# \;;
#X msg 533 65 E- \;;
#X msg 564 65 F- \;;
#X msg 595 65 F# \;;
#X msg 627 64 G- \;;
#X msg 661 65 G# \;;
#X msg 694 66 -- \;;
#X obj 339 -23 + 3;
#X connect 0 0 2 0;
#X connect 1 0 19 0;
#X connect 3 0 5 0;
#X connect 5 0 6 0;
#X connect 5 1 7 0;
#X connect 5 2 8 0;
#X connect 5 3 9 0;
#X connect 5 4 10 0;
#X connect 5 5 11 0;
#X connect 5 6 12 0;
#X connect 5 7 13 0;
#X connect 5 8 14 0;
#X connect 5 9 15 0;
#X connect 5 10 16 0;
#X connect 5 11 17 0;
#X connect 5 12 18 0;
#X connect 6 0 0 0;
#X connect 7 0 0 0;
#X connect 8 0 0 0;
#X connect 9 0 0 0;
#X connect 10 0 0 0;
#X connect 11 0 0 0;
#X connect 12 0 0 0;
#X connect 13 0 0 0;
#X connect 14 0 0 0;
#X connect 15 0 0 0;
#X connect 16 0 0 0;
#X connect 17 0 0 0;
#X connect 18 0 0 0;
#X connect 19 0 3 0;
