#N canvas 863 498 450 300 10;
#X obj 40 40 list-drip;
#X msg 343 19 0;
#X obj 206 -33 inlet;
#X obj 267 49 t l b;
#X msg 337 -10 0 2 4 5 7 9 11 12;
#X obj 37 125 + 5;
#X obj 37 146 + 4;
#X obj 37 168 + 5;
#X obj 37 193 + 5;
#X obj 37 218 + 5;
#X obj 100 117 kieli;
#X obj 100 100 kieli;
#X obj 100 185 kieli;
#X obj 100 168 kieli;
#X obj 100 151 kieli;
#X obj 100 134 kieli;
#X obj 48 69 mod 12;
#X obj 144 49 list-splat 7;
#X obj 43 104 + 69;
#X connect 0 0 16 0;
#X connect 1 0 3 0;
#X connect 2 0 3 0;
#X connect 3 0 17 0;
#X connect 3 1 10 1;
#X connect 3 1 11 1;
#X connect 3 1 12 1;
#X connect 3 1 13 1;
#X connect 3 1 14 1;
#X connect 3 1 15 1;
#X connect 4 0 3 0;
#X connect 5 0 6 0;
#X connect 5 0 10 0;
#X connect 6 0 7 0;
#X connect 6 0 15 0;
#X connect 7 0 8 0;
#X connect 7 0 14 0;
#X connect 8 0 9 0;
#X connect 8 0 13 0;
#X connect 9 0 12 0;
#X connect 16 0 11 0;
#X connect 16 0 18 0;
#X connect 17 0 0 0;
#X connect 18 0 5 0;
#X coords 0 -1 1 1 146 102 2 100 100;
