#N canvas 164 343 1075 441 10;
#X obj 37 63 h_map \$0-savelet_lkm;
#X text 160 64 lista kaikista sävellyksessä käytettävistä äänistä;
#N canvas 0 0 450 300 alustus 0;
#X msg 802 301 0;
#X msg 845 382 0;
#X obj 787 420 h_map \$0-savelet_lkm;
#X obj 787 365 t f b;
#X obj 787 331 f;
#X obj 813 330 + 1;
#X obj 755 263 metro 40;
#X msg 695 282 stop;
#X obj 764 184 t b b;
#X obj 765 158 loadbang;
#X obj 695 261 sel 12;
#X msg 785 391 add \$1;
#X connect 0 0 4 1;
#X connect 1 0 2 1;
#X connect 3 0 11 0;
#X connect 3 1 1 0;
#X connect 4 0 5 0;
#X connect 4 0 10 0;
#X connect 5 0 4 1;
#X connect 6 0 4 0;
#X connect 7 0 6 0;
#X connect 8 0 6 0;
#X connect 8 1 0 0;
#X connect 9 0 8 0;
#X connect 10 0 7 0;
#X connect 10 1 3 0;
#X connect 11 0 2 0;
#X restore 294 12 pd alustus;
#X obj 37 43 h_map \$0-osat;
#X text 118 42 lista eri osista puretussa muodossa;
#N canvas 0 0 450 300 lisaa_osa 0;
#X obj 58 93 r \$0-osan_numero;
#X obj 181 115 f;
#X obj 281 115 t b f;
#X obj 181 141 pack f f;
#X obj 115 214 h_map \$0-osat;
#X obj 70 150 f;
#X obj 163 170 t b l;
#X obj 58 214 del 1500;
#X obj 58 235 s \$0-uusi_osa;
#X msg 70 172 add \$1;
#X text 86 24 valitsimet lisäävät osan joko suoraan kun käyttämättömän
osan numero valitaan tai sitten kun semmoinen erikseen syötetään klikkaamalla
osan numeroa;
#X obj 58 114 t f b;
#X obj 280 94 r \$0-osan_savel;
#X obj 181 94 r \$0-osan_skaala;
#X connect 0 0 11 0;
#X connect 1 0 3 0;
#X connect 2 0 1 0;
#X connect 2 1 3 1;
#X connect 3 0 6 0;
#X connect 5 0 9 0;
#X connect 6 1 4 1;
#X connect 7 0 8 0;
#X connect 9 0 4 0;
#X connect 11 0 5 0;
#X connect 11 1 1 0;
#X connect 11 1 7 0;
#X connect 12 0 2 0;
#X connect 13 0 1 0;
#X restore 408 10 pd lisaa_osa;
#N canvas 0 0 450 300 saveltimelta 0;
#X obj 6 14 r \$0-osan_numero;
#X obj 129 15 r \$0-osan_savel;
#X obj 229 15 r \$0-osan_skaala;
#X text 127 27 näiden muuttaminen päivittää osalistauksen. Järjestysnumeron
muuttaminen ei sitä tee.;
#X obj 1 91 s \$0-konsonanssit;
#X text 115 93 lista jossa 12 arvoa \, kukin 0 - 1 \, siten että kaikki
yhteenlaskettuna on 1;
#X restore 486 10 pd saveltimelta;
#N canvas 0 0 450 300 laske_konsonanssit 0;
#X obj 63 200 /;
#X msg 61 112 values;
#X msg 115 112 get \$1;
#X obj 63 229 serialize 12;
#X obj 63 253 s \$0-konsonanssit;
#X obj 226 167 r \$0-savelet_lkm_yht;
#X obj 61 143 h_map \$0-savelet_lkm;
#X obj 231 234 print;
#X obj 226 188 t b;
#X obj 226 209 del 2000;
#X connect 0 0 3 0;
#X connect 1 0 6 0;
#X connect 2 0 6 0;
#X connect 3 0 4 0;
#X connect 3 0 7 0;
#X connect 5 0 0 1;
#X connect 5 0 8 0;
#X connect 6 0 0 0;
#X connect 8 0 9 0;
#X connect 9 0 1 0;
#X restore 582 10 pd laske_konsonanssit;
#X obj 165 10 r \$0-pohja-aani;
#X msg 3 15 values;
#X obj 20 95 print;
#X msg 120 10 keys;
#N canvas 143 101 1194 331 valitsimet 0;
#X obj 71 202 laskuri 12;
#X obj 70 145 laskuri 25;
#X obj 416 100 bng 24 250 50 0 empty empty empty 17 7 0 10 -262144
-1 -1;
#X obj 416 100 cnv 24 24 24 \$0-seuraava_osa empty >> 0 12 0 20 -262144
-66577 0;
#X obj 125 100 cnv 15 120 24 empty \$0-valitsimet_atm_skaala jooninen
3 12 0 14 -262144 -66577 0;
#X obj 330 100 bng 24 250 50 0 empty empty empty 17 7 0 10 -262144
-1 -1;
#X obj 330 100 cnv 24 24 24 \$0-seuraava_osa empty >> 0 12 0 20 -262144
-66577 0;
#X obj 360 100 bng 24 250 50 0 empty empty 1 17 9 0 10 -262144 -1 -1
;
#X obj 360 100 cnv 24 24 24 \$0-edellinen_osa empty << 0 12 0 20 -262144
-66577 0;
#X obj 299 100 cnv 15 30 24 empty \$0-valitsimet_atm_savel D$ 6 12
0 14 -262144 -66577 0;
#X obj 246 100 bng 24 250 50 0 empty empty empty 17 7 0 10 -262144
-1 -1;
#X obj 246 100 cnv 24 24 24 \$0-seuraava_osa empty >> 0 12 0 20 -262144
-66577 0;
#X obj 275 100 bng 24 250 50 0 empty empty empty 17 7 0 10 -262144
-1 -1;
#X obj 275 100 cnv 24 24 24 \$0-edellinen_osa empty << 0 12 0 20 -262144
-66577 0;
#X obj 100 100 bng 24 250 50 0 empty empty empty 17 7 0 10 -262144
-1 -1;
#X obj 100 100 cnv 24 24 24 \$0-edellinen_osa empty << 0 12 0 20 -262144
-66577 0;
#X obj 386 100 bng 24 250 50 0 \$0-tulostimelle_lisaa_skaala empty
empty 17 7 0 10 -262144 -1 -1;
#X obj 385 100 cnv 15 30 24 empty \$0-tulostimen_atm_osa 15 3 12 0
12 -262144 -66577 0;
#X obj 71 262 laskuri 64;
#X obj -141 117 skaala_nimi;
#X msg -141 135 label \$1;
#X obj -141 153 s \$0-valitsimet_atm_skaala;
#X obj -140 174 m2n;
#X msg -140 192 label \$1;
#X msg -139 261 label \$1;
#X obj -139 279 s \$0-tulostimen_atm_osa;
#X obj -140 212 s \$0-valitsimet_atm_savel;
#X obj -139 244 ftos;
#X obj -11 252 + 1;
#X obj 608 249 s \$0-osan_skaala;
#X obj 508 249 s \$0-osan_savel;
#X obj 385 248 s \$0-osan_numero;
#X obj 524 140 h_map \$0-osat;
#X msg 524 120 get \$1;
#X obj 385 229 f;
#X obj 385 204 t b b b;
#X obj 497 72 t f f;
#X connect 0 0 22 0;
#X connect 0 0 30 0;
#X connect 1 0 19 0;
#X connect 1 0 29 0;
#X connect 2 0 18 1;
#X connect 5 0 0 1;
#X connect 7 0 18 0;
#X connect 10 0 1 1;
#X connect 12 0 0 0;
#X connect 14 0 1 0;
#X connect 16 0 35 0;
#X connect 18 0 28 0;
#X connect 18 0 36 0;
#X connect 19 0 20 0;
#X connect 20 0 21 0;
#X connect 22 0 23 0;
#X connect 23 0 26 0;
#X connect 24 0 25 0;
#X connect 27 0 24 0;
#X connect 28 0 27 0;
#X connect 32 2 34 0;
#X connect 33 0 32 0;
#X connect 34 0 31 0;
#X connect 35 0 34 0;
#X connect 36 0 33 0;
#X connect 36 1 34 1;
#X coords 0 -1 1 1 340 24 1 100 100;
#X restore 595 -27 pd valitsimet;
#X msg 129 100 values;
#X msg 89 118 keys;
#N canvas 0 0 450 300 laske_konsonanssi 0;
#X obj 258 47 r \$0-konsonanssit;
#X obj 230 128 list-minmax;
#X obj 135 132 packel;
#X obj 135 63 inlet;
#X obj 162 109 f;
#X obj 258 70 t l l;
#X obj 305 195 /;
#X obj 293 152 t b f;
#X msg 292 174 1;
#X obj 135 109 l;
#X obj 135 83 t b f;
#X obj 135 159 *;
#X obj 135 206 outlet;
#X text 136 16 palauttaa yksittäisen äänen konsonanssin (0 - 1);
#X connect 0 0 5 0;
#X connect 1 1 7 0;
#X connect 2 0 11 0;
#X connect 3 0 10 0;
#X connect 4 0 2 1;
#X connect 5 0 1 0;
#X connect 5 1 9 1;
#X connect 6 0 11 1;
#X connect 7 0 8 0;
#X connect 7 1 6 1;
#X connect 8 0 6 0;
#X connect 9 0 2 0;
#X connect 10 0 9 0;
#X connect 10 1 4 0;
#X connect 11 0 12 0;
#X restore 714 10 pd laske_konsonanssi;
#X obj 840 10 konsonator;
#N canvas 1168 343 450 570 laske_savelet 1;
#X obj 64 11 r \$0-uusi_osa;
#X msg 378 194 0;
#X msg 278 196 add \$1;
#X obj 245 134 f;
#X obj 270 134 + 1;
#X obj 245 155 sel 12;
#X obj 278 176 t f b;
#X obj 64 31 t b b;
#X msg 211 103 stop;
#X obj 245 84 t b b;
#X msg 310 101 0;
#X obj 278 216 h_map \$0-savelet_lkm;
#X obj 245 66 bng 15 250 50 0 empty empty empty 17 7 0 10 -262144 -1
-1;
#X obj 245 103 metro 1;
#X obj 52 104 h_map \$0-osat;
#X msg 52 84 values;
#X obj 29 155 skaala_intervallit;
#X obj 29 134 unpack f f;
#X obj 29 175 summaa_intervallit_pohja-aanella;
#X obj 29 197 list-drip;
#X obj 29 217 mod 12;
#X obj 57 282 h_map \$0-savelet_lkm;
#X msg 57 262 get \$1;
#X obj 57 308 f;
#X msg 26 339 add \$1;
#X obj 57 329 + 1;
#X obj 27 361 h_map \$0-savelet_lkm;
#X obj 27 403 print;
#X obj 26 301 f;
#X obj 52 64 del 50;
#X obj 30 239 t f f;
#N canvas 0 0 450 300 alustus 0;
#X msg 802 301 0;
#X msg 845 382 0;
#X obj 787 420 h_map \$0-savelet_lkm;
#X obj 787 365 t f b;
#X obj 787 331 f;
#X obj 813 330 + 1;
#X obj 755 263 metro 40;
#X msg 695 282 stop;
#X obj 764 184 t b b;
#X obj 765 158 loadbang;
#X obj 695 261 sel 12;
#X msg 785 391 add \$1;
#X connect 0 0 4 1;
#X connect 1 0 2 1;
#X connect 3 0 11 0;
#X connect 3 1 1 0;
#X connect 4 0 5 0;
#X connect 4 0 10 0;
#X connect 5 0 4 1;
#X connect 6 0 4 0;
#X connect 7 0 6 0;
#X connect 8 0 6 0;
#X connect 8 1 0 0;
#X connect 9 0 8 0;
#X connect 10 0 7 0;
#X connect 10 1 3 0;
#X connect 11 0 2 0;
#X restore 351 20 pd alustus;
#X connect 0 0 7 0;
#X connect 1 0 11 1;
#X connect 2 0 11 0;
#X connect 3 0 4 0;
#X connect 3 0 5 0;
#X connect 4 0 3 1;
#X connect 5 0 8 0;
#X connect 5 1 6 0;
#X connect 6 0 2 0;
#X connect 6 1 1 0;
#X connect 7 0 29 0;
#X connect 7 1 12 0;
#X connect 8 0 13 0;
#X connect 9 0 13 0;
#X connect 9 1 10 0;
#X connect 10 0 3 1;
#X connect 12 0 9 0;
#X connect 13 0 3 0;
#X connect 14 0 17 0;
#X connect 15 0 14 0;
#X connect 16 0 18 0;
#X connect 17 0 16 0;
#X connect 17 1 18 1;
#X connect 18 0 19 0;
#X connect 19 0 20 0;
#X connect 20 0 30 0;
#X connect 21 0 23 0;
#X connect 22 0 21 0;
#X connect 23 0 25 0;
#X connect 24 0 26 0;
#X connect 25 0 26 1;
#X connect 26 0 27 0;
#X connect 28 0 24 0;
#X connect 29 0 15 0;
#X connect 30 0 28 0;
#X connect 30 1 22 0;
#X restore 906 10 pd laske_savelet;
#X connect 0 0 10 0;
#X connect 3 0 10 0;
#X connect 9 0 3 0;
#X connect 11 0 3 0;
#X connect 13 0 0 0;
#X connect 14 0 0 0;
