#N canvas 0 0 1028 568 10;
#X obj 44 -83 inlet;
#X text 45 -102 1 1 2 1 1 1 2;
#X text 95 -82 ottaa vastaan moodin järjestysluvun ja palauttaa sen
intervallit listana;
#X text 860 -63 7 major pentatonic;
#X text 861 -54 8 minor pentatonic;
#X text 861 -46 9 harmonic minor;
#X text 856 -30 11 lyydinen b7;
#X text 855 -38 10 melodic minor;
#X text 856 -22 12 blues;
#X obj 122 -40 route 0 1 2 3 4 5 6;
#X text 857 -92 0-6 moodit;
#X text 65 352 palauttaa listan jossa intervallijyvät;
#X obj 264 335 outlet;
#X obj 331 -49 route 7 8 9 10 11 12 13;
#X obj 601 -54 route 14 15 16 17 18 19 20;
#X text 858 -82 7-13 melodiset;
#X text 860 -73 14-20 harmoniset;
#X msg 175 8 jooninen;
#X msg 188 28 doorinen;
#X msg 198 45 fryyginen;
#X msg 205 63 lyydinen;
#X msg 212 81 miksolyydinen;
#X msg 220 98 aiolinen;
#X msg 231 116 lokrinen;
#X obj 204 158 symbol;
#X obj 461 147 symbol;
#X obj 390 341 symbol;
#X msg 381 318 --;
#X obj 655 315 symbol;
#X msg 811 345 blues;
#X msg 814 322 lyydinen b7;
#X msg 494 166 ERRORRRRRRR;
#X obj 837 90 route 21 22 23 24 25 26 27;
#X obj 733 361 symbol;
#X obj 658 122 symbol;
#X msg 739 95 harm.7 lokrinen;
#X msg 774 148 pent.1-duuri;
#X msg 786 166 pent.2-molli;
#X msg 792 183 pent.3-?harm?;
#X msg 803 200 pent.4-?melod?;
#X msg 816 217 pent.5-?lockr?;
#X msg 413 -9 mel.1-jooninen;
#X msg 426 10 mel.2-doorinen;
#X msg 436 25 mel.3-fryyginen;
#X msg 443 45 mel.4-lyydinen;
#X msg 450 63 mel.5-miksolyydinen;
#X msg 458 80 mel.6-aiolinen;
#X msg 469 98 mel.-lokrinen;
#X msg 683 -13 harm.1-jooninen;
#X msg 696 7 harm.2-doorinen;
#X msg 706 24 harm.3-fryyginen;
#X msg 713 42 harm.4-lyydinen;
#X msg 721 60 harm.5-miksolyydinen;
#X msg 728 77 harm.6-aiolinen;
#X connect 0 0 9 0;
#X connect 9 0 17 0;
#X connect 9 1 18 0;
#X connect 9 2 19 0;
#X connect 9 3 20 0;
#X connect 9 4 21 0;
#X connect 9 5 22 0;
#X connect 9 6 23 0;
#X connect 9 7 13 0;
#X connect 13 0 41 0;
#X connect 13 1 42 0;
#X connect 13 2 43 0;
#X connect 13 3 44 0;
#X connect 13 4 45 0;
#X connect 13 5 46 0;
#X connect 13 6 47 0;
#X connect 13 7 14 0;
#X connect 14 0 48 0;
#X connect 14 1 49 0;
#X connect 14 2 50 0;
#X connect 14 3 51 0;
#X connect 14 4 52 0;
#X connect 14 5 53 0;
#X connect 14 6 35 0;
#X connect 14 7 32 0;
#X connect 17 0 24 0;
#X connect 18 0 24 0;
#X connect 19 0 24 0;
#X connect 20 0 24 0;
#X connect 21 0 24 0;
#X connect 22 0 24 0;
#X connect 23 0 24 0;
#X connect 24 0 12 0;
#X connect 25 0 12 0;
#X connect 26 0 12 0;
#X connect 27 0 26 0;
#X connect 28 0 12 0;
#X connect 29 0 33 0;
#X connect 30 0 33 0;
#X connect 31 0 26 0;
#X connect 32 0 36 0;
#X connect 32 1 37 0;
#X connect 32 2 38 0;
#X connect 32 3 39 0;
#X connect 32 4 40 0;
#X connect 32 5 30 0;
#X connect 32 6 29 0;
#X connect 32 7 31 0;
#X connect 33 0 12 0;
#X connect 34 0 12 0;
#X connect 35 0 34 0;
#X connect 36 0 28 0;
#X connect 37 0 28 0;
#X connect 38 0 28 0;
#X connect 39 0 28 0;
#X connect 40 0 28 0;
#X connect 41 0 25 0;
#X connect 42 0 25 0;
#X connect 43 0 25 0;
#X connect 44 0 25 0;
#X connect 45 0 25 0;
#X connect 46 0 25 0;
#X connect 47 0 25 0;
#X connect 48 0 34 0;
#X connect 49 0 34 0;
#X connect 50 0 34 0;
#X connect 51 0 34 0;
#X connect 52 0 34 0;
#X connect 53 0 34 0;
