#N canvas 77 239 1061 568 10;
#X obj 44 -83 inlet;
#X text 45 -102 1 1 2 1 1 1 2;
#X obj 59 35 2 1 2 2 2 1 2;
#X obj 75 52 1 2 2 2 1 2 2;
#X obj 91 68 2 2 2 1 2 2 1;
#X obj 65 334 outlet;
#X text 95 -82 ottaa vastaan moodin järjestysluvun ja palauttaa sen
intervallit listana;
#X text 860 -63 7 major pentatonic;
#X text 861 -54 8 minor pentatonic;
#X text 861 -46 9 harmonic minor;
#X text 856 -30 11 lyydinen b7;
#X text 855 -38 10 melodic minor;
#X text 856 -22 12 blues;
#X obj 122 -40 route 0 1 2 3 4 5 6;
#X text 857 -92 0-6 moodit;
#X obj 136 119 1 2 2 1 2 2 2;
#X obj 124 102 2 1 2 2 1 2 2;
#X obj 106 84 2 2 1 2 2 1 2;
#X obj 75 167 l;
#X obj 44 18 2 2 1 2 2 2 1;
#X obj 331 -49 route 7 8 9 10 11 12 13;
#X obj 601 -54 route 14 15 16 17 18 19 20;
#X text 858 -82 7-13 melodiset;
#X text 860 -73 14-20 harmoniset;
#X obj 356 100 2 1 2 2 2 2 1;
#X obj 366 117 1 2 2 2 2 1 2;
#X obj 352 81 1 2 1 2 2 2 2;
#X obj 347 63 2 1 2 1 2 2 2;
#X obj 341 44 2 2 1 2 1 2 2;
#X obj 336 28 2 2 2 1 2 1 2;
#X obj 329 9 2 2 2 2 1 2 1;
#X obj 292 138 l;
#X obj 608 75 2 1 2 2 1 3 1;
#X obj 617 93 1 2 2 1 3 1 2;
#X obj 597 58 1 2 1 2 2 1 3;
#X obj 589 39 3 1 2 1 2 2 1;
#X obj 580 21 1 3 1 2 1 2 2;
#X obj 572 3 2 1 3 1 2 1 2;
#X obj 564 -15 2 2 1 3 1 2 1;
#X obj 914 147 2 2 3 2 3 0 0;
#X obj 921 165 3 2 2 3 2 0 0;
#X obj 568 121 l;
#X obj 926 182 2 3 2 2 3 0 0;
#X obj 933 199 3 2 3 2 2 0 0;
#X obj 940 215 2 3 2 3 2 0 0;
#X obj 837 90 route 21 22 23 24 25 26 27;
#X obj 560 253 l;
#X obj 803 240 l;
#X obj 802 284 2 2 2 1 2 1 2;
#X obj 809 302 3 2 1 1 3 2 0;
#X obj 810 322 0 0 0 0 0 0 0;
#X connect 0 0 13 0;
#X connect 2 0 18 0;
#X connect 3 0 18 0;
#X connect 4 0 18 0;
#X connect 13 0 19 0;
#X connect 13 1 2 0;
#X connect 13 2 3 0;
#X connect 13 3 4 0;
#X connect 13 4 17 0;
#X connect 13 5 16 0;
#X connect 13 6 15 0;
#X connect 13 7 20 0;
#X connect 15 0 18 0;
#X connect 16 0 18 0;
#X connect 17 0 18 0;
#X connect 18 0 5 0;
#X connect 19 0 18 0;
#X connect 20 0 30 0;
#X connect 20 1 29 0;
#X connect 20 2 28 0;
#X connect 20 3 27 0;
#X connect 20 4 26 0;
#X connect 20 5 24 0;
#X connect 20 6 25 0;
#X connect 20 7 21 0;
#X connect 21 0 38 0;
#X connect 21 1 37 0;
#X connect 21 2 36 0;
#X connect 21 3 35 0;
#X connect 21 4 34 0;
#X connect 21 5 32 0;
#X connect 21 6 33 0;
#X connect 21 7 45 0;
#X connect 24 0 31 0;
#X connect 25 0 31 0;
#X connect 26 0 31 0;
#X connect 27 0 31 0;
#X connect 28 0 31 0;
#X connect 29 0 31 0;
#X connect 30 0 31 0;
#X connect 31 0 5 0;
#X connect 32 0 41 0;
#X connect 33 0 41 0;
#X connect 34 0 41 0;
#X connect 35 0 41 0;
#X connect 36 0 41 0;
#X connect 37 0 41 0;
#X connect 38 0 41 0;
#X connect 39 0 47 0;
#X connect 40 0 47 0;
#X connect 41 0 5 0;
#X connect 42 0 47 0;
#X connect 43 0 47 0;
#X connect 44 0 47 0;
#X connect 45 0 39 0;
#X connect 45 1 40 0;
#X connect 45 2 42 0;
#X connect 45 3 43 0;
#X connect 45 4 44 0;
#X connect 45 5 48 0;
#X connect 45 6 49 0;
#X connect 45 7 50 0;
#X connect 46 0 5 0;
#X connect 47 0 5 0;
#X connect 48 0 46 0;
#X connect 49 0 46 0;
#X connect 50 0 46 0;
