#N canvas 195 247 1418 692 10;
#X obj 112 100 cnv 10 150 10 empty 0-soska -2doorinen 5 5 0 10 -66577
-1 0;
#X obj 112 110 cnv 10 150 10 empty 1-soska -2doorinen 5 5 0 10 -66577
-1 0;
#X obj 112 120 cnv 10 150 10 empty 2-soska -2doorinen 5 5 0 10 -66577
-1 0;
#X obj 112 130 cnv 10 150 10 empty 3-soska -2doorinen 5 5 0 10 -66577
-1 0;
#X obj 112 140 cnv 10 150 10 empty 4-soska -2doorinen 5 5 0 10 -66577
-1 0;
#X obj 112 150 cnv 10 150 10 empty 5-soska -2doorinen 5 5 0 10 -66577
-1 0;
#X obj 112 160 cnv 10 150 10 empty 6-soska -2doorinen 5 5 0 10 -66577
-1 0;
#X obj 112 170 cnv 10 150 10 empty 7-soska -2doorinen 5 5 0 10 -66577
-1 0;
#X obj 112 180 cnv 10 150 10 empty 8-soska -3mel.5-miksolyydinen 5
5 0 10 -66577 -1 0;
#X obj 112 190 cnv 10 150 10 empty 9-soska -3mel.5-miksolyydinen 5
5 0 10 -66577 -1 0;
#X obj 112 200 cnv 10 150 10 empty 10-soska -3mel.5-miksolyydinen 5
5 0 10 -66577 -1 0;
#X obj 112 210 cnv 10 150 10 empty 11-soska -3mel.5-miksolyydinen 5
5 0 10 -66577 -1 0;
#X obj 112 220 cnv 10 150 10 empty 12-soska -3mel.5-miksolyydinen 5
5 0 10 -66577 -1 0;
#X obj 112 230 cnv 10 150 10 empty 13-soska -3mel.5-miksolyydinen 5
5 0 10 -66577 -1 0;
#X obj 112 240 cnv 10 150 10 empty 14-soska -3mel.5-miksolyydinen 5
5 0 10 -66577 -1 0;
#X obj 112 250 cnv 10 150 10 empty 15-soska -3mel.5-miksolyydinen 5
5 0 10 -66577 -1 0;
#X obj 112 260 cnv 10 150 10 empty 16-soska -3mel.5-miksolyydinen 5
5 0 10 -66577 -1 0;
#X obj 112 270 cnv 10 150 10 empty 17-soska -3mel.5-miksolyydinen 5
5 0 10 -66577 -1 0;
#X obj 112 280 cnv 10 150 10 empty 18-soska -3mel.5-miksolyydinen 5
5 0 10 -66577 -1 0;
#X obj 112 290 cnv 10 150 10 empty 19-soska -3mel.5-miksolyydinen 5
5 0 10 -66577 -1 0;
#X obj 112 300 cnv 10 150 10 empty 20-soska -3mel.5-miksolyydinen 5
5 0 10 -66577 -1 0;
#X obj 112 310 cnv 10 150 10 empty 21-soska -3mel.5-miksolyydinen 5
5 0 10 -66577 -1 0;
#X obj 112 320 cnv 10 150 10 empty 22-soska -3mel.5-miksolyydinen 5
5 0 10 -66577 -1 0;
#X obj 112 330 cnv 10 150 10 empty 23-soska -3mel.5-miksolyydinen 5
5 0 10 -66577 -1 0;
#X obj 112 340 cnv 10 150 10 empty 24-soska -3mel.5-miksolyydinen 5
5 0 10 -66577 -1 0;
#X obj 112 350 cnv 10 150 10 empty 25-soska -3mel.5-miksolyydinen 5
5 0 10 -66577 -1 0;
#X obj 112 360 cnv 10 150 10 empty 26-soska -3mel.5-miksolyydinen 5
5 0 10 -66577 -1 0;
#X obj 112 370 cnv 10 150 10 empty 27-soska -3mel.5-miksolyydinen 5
5 0 10 -66577 -1 0;
#X obj 112 380 cnv 10 150 10 empty 28-soska -3mel.5-miksolyydinen 5
5 0 10 -66577 -1 0;
#X obj 112 390 cnv 10 150 10 empty 29-soska -3mel.5-miksolyydinen 5
5 0 10 -66577 -1 0;
#X obj 112 400 cnv 10 150 10 empty 30-soska -3mel.5-miksolyydinen 5
5 0 10 -66577 -1 0;
#X obj 112 410 cnv 10 150 10 empty 31-soska -3mel.5-miksolyydinen 5
5 0 10 -66577 -1 0;
#X obj 112 420 cnv 10 150 10 empty 32-soska -3mel.5-miksolyydinen 5
5 0 10 -66577 -1 0;
#X obj 112 430 cnv 10 150 10 empty 33-soska -3mel.5-miksolyydinen 5
5 0 10 -66577 -1 0;
#X obj 112 440 cnv 10 150 10 empty 34-soska -3mel.5-miksolyydinen 5
5 0 10 -66577 -1 0;
#X obj 266 100 cnv 10 150 10 empty 0-esoska 2doorinen 5 5 0 10 -33289
-262144 0;
#X obj 266 110 cnv 10 150 10 empty 1-esoska 4fryyginen 5 5 0 10 -33289
-262144 0;
#X obj 266 120 cnv 10 150 10 empty 2-esoska 5lyydinen 5 5 0 10 -33289
-262144 0;
#X obj 266 130 cnv 10 150 10 empty 3-esoska 7miksolyydinen 5 5 0 10
-33289 -262144 0;
#X obj 266 140 cnv 10 150 10 empty 4-esoska 9aiolinen 5 5 0 10 -33289
-262144 0;
#X obj 266 150 cnv 10 150 10 empty 5-esoska 11lokrinen 5 5 0 10 -33289
-262144 0;
#X obj 266 160 cnv 10 150 10 empty 6-esoska 12jooninen 5 5 0 10 -33289
-262144 0;
#X obj 266 170 cnv 10 150 10 empty 7-esoska 12jooninen 5 5 0 10 -33289
-262144 0;
#X obj 266 180 cnv 10 150 10 empty 8-esoska 1mel.5-miksolyydinen 5
5 0 10 -33289 -262144 0;
#X obj 266 190 cnv 10 150 10 empty 9-esoska 2miksolyydinen 5 5 0 10
-33289 -262144 0;
#X obj 266 200 cnv 10 150 10 empty 10-esoska 2aiolinen 5 5 0 10 -33289
-262144 0;
#X obj 266 210 cnv 10 150 10 empty 11-esoska 2mel.6-aiolinen 5 5 0
10 -33289 -262144 0;
#X obj 266 220 cnv 10 150 10 empty 12-esoska 2mel.-lokrinen 5 5 0 10
-33289 -262144 0;
#X obj 266 230 cnv 10 150 10 empty 13-esoska 2harm.2-doorinen 5 5 0
10 -33289 -262144 0;
#X obj 266 240 cnv 10 150 10 empty 14-esoska 3mel.1-jooninen 5 5 0
10 -33289 -262144 0;
#X obj 266 250 cnv 10 150 10 empty 15-esoska 4aiolinen 5 5 0 10 -33289
-262144 0;
#X obj 266 260 cnv 10 150 10 empty 16-esoska 4lokrinen 5 5 0 10 -33289
-262144 0;
#X obj 266 270 cnv 10 150 10 empty 17-esoska 4mel.-lokrinen 5 5 0 10
-33289 -262144 0;
#X obj 266 280 cnv 10 150 10 empty 18-esoska 4harm.3-fryyginen 5 5
0 10 -33289 -262144 0;
#X obj 266 290 cnv 10 150 10 empty 19-esoska 5jooninen 5 5 0 10 -33289
-262144 0;
#X obj 266 300 cnv 10 150 10 empty 20-esoska 5mel.1-jooninen 5 5 0
10 -33289 -262144 0;
#X obj 266 310 cnv 10 150 10 empty 21-esoska 5mel.2-doorinen 5 5 0
10 -33289 -262144 0;
#X obj 266 320 cnv 10 150 10 empty 22-esoska 5harm.4-lyydinen 5 5 0
10 -33289 -262144 0;
#X obj 266 330 cnv 10 150 10 empty 23-esoska 6lokrinen 5 5 0 10 -33289
-262144 0;
#X obj 266 340 cnv 10 150 10 empty 24-esoska 7jooninen 5 5 0 10 -33289
-262144 0;
#X obj 266 350 cnv 10 150 10 empty 25-esoska 7doorinen 5 5 0 10 -33289
-262144 0;
#X obj 266 360 cnv 10 150 10 empty 26-esoska 7mel.2-doorinen 5 5 0
10 -33289 -262144 0;
#X obj 266 370 cnv 10 150 10 empty 27-esoska 7mel.3-fryyginen 5 5 0
10 -33289 -262144 0;
#X obj 266 380 cnv 10 150 10 empty 28-esoska 8harm.5-miksolyydinen
5 5 0 10 -33289 -262144 0;
#X obj 266 390 cnv 10 150 10 empty 29-esoska 9doorinen 5 5 0 10 -33289
-262144 0;
#X obj 266 400 cnv 10 150 10 empty 30-esoska 9fryyginen 5 5 0 10 -33289
-262144 0;
#X obj 266 410 cnv 10 150 10 empty 31-esoska 9mel.3-fryyginen 5 5 0
10 -33289 -262144 0;
#X obj 266 420 cnv 10 150 10 empty 32-esoska 9mel.4-lyydinen 5 5 0
10 -33289 -262144 0;
#X obj 266 430 cnv 10 150 10 empty 33-esoska 9harm.6-aiolinen 5 5 0
10 -33289 -262144 0;
#X obj 266 440 cnv 10 150 10 empty 34-esoska 11fryyginen 5 5 0 10 -33289
-262144 0;
#X obj -457 6 spigot;
#X obj -197 54 tgl 15 0 empty empty empty 17 7 0 10 -262144 -1 -1 0
1;
#X msg -197 28 1;
#X msg -208 6 0;
#N canvas 872 72 450 647 muodosta_nimi_osalle 1;
#X symbolatom 203 450 10 0 0 0 - - -;
#X obj 203 431 makesymbol %s%s;
#X msg 196 343 list \$1 \$2;
#X obj 203 412 pack s s;
#X floatatom 230 93 5 0 0 0 - - -;
#X obj 225 243 ftos;
#X obj 107 215 symbol;
#X obj 193 262 symbol;
#X obj 124 243 t b s;
#X obj 173 74 unpack f f;
#X obj 177 46 inlet;
#X obj 293 45 inlet;
#X obj 203 495 outlet;
#X obj 107 196 skaala_nimi;
#X obj 245 220 -;
#X connect 0 0 12 0;
#X connect 1 0 0 0;
#X connect 3 0 1 0;
#X connect 4 0 14 0;
#X connect 5 0 7 1;
#X connect 6 0 8 0;
#X connect 7 0 3 0;
#X connect 8 0 7 0;
#X connect 8 1 3 1;
#X connect 9 0 13 0;
#X connect 9 1 4 0;
#X connect 10 0 9 0;
#X connect 11 0 14 1;
#X connect 13 0 6 0;
#X connect 14 0 5 0;
#X restore -414 265 pd muodosta_nimi_osalle;
#X obj -239 263 r \$0-monesko_soska;
#X msg -73 213 2 22;
#X msg -75 245 1 22;
#X msg -31 248 0 22;
#X obj -396 137 f;
#X obj -363 191 s \$0-monesko_soska;
#X obj -456 25 t b l b;
#X obj -394 221 s \$0-soskat_taynna;
#X obj -208 -13 r \$0-soskat_taynna;
#X obj -363 78 r \$0-soskat-alusta;
#X obj -41 146 bng 15 250 50 0 empty empty empty 17 7 0 10 -262144
-1 -1;
#X floatatom 14 106 5 0 0 0 - - -;
#X floatatom -337 173 5 0 0 0 - - -;
#X obj 32 67 r \$0-monesko_soskan_aste;
#X obj -396 159 sel 35;
#X obj -371 137 + 1;
#X msg -363 97 0;
#X obj -41 167 demux 7 6 5 4;
#X msg -456 -55 get \$1;
#X obj -456 -78 f;
#X obj -432 -80 - 1;
#X msg -395 -122 7;
#X msg -456 -196 stop;
#X obj -456 -213 r \$0-soskat_taynna;
#X obj -422 -173 t b b;
#X obj -407 -81 s \$0-monesko_soskan_aste;
#X obj -289 -201 bng 15 250 50 0 empty empty empty 17 7 0 10 -262144
-1 -1;
#X obj -456 -33 h_multimap konsonator_skoret;
#X obj -289 -145 s \$0-soskat-alusta;
#X obj -303 -173 t b b;
#X obj -456 -149 metro 2900;
#X obj -414 303 canvas_argumentor label soska;
#X obj -180 5 r \$0-soskat-alusta;
#X obj -442 -109 bng 15 250 50 0 empty empty empty 17 7 0 10 -262144
-1 -1;
#X obj -175 -201 inlet;
#X obj -69 -150 inlet;
#X text -29 -153 pohja-aani;
#X msg -245 -67 print;
#X obj -337 3 print asdf;
#X obj -201 303 canvas_argumentor color soska;
#X connect 70 0 81 0;
#X connect 71 0 70 1;
#X connect 72 0 71 0;
#X connect 73 0 71 0;
#X connect 74 0 106 0;
#X connect 75 0 106 1;
#X connect 75 0 114 1;
#X connect 76 0 114 0;
#X connect 77 0 114 0;
#X connect 78 0 114 0;
#X connect 79 0 89 0;
#X connect 79 0 90 0;
#X connect 81 0 85 0;
#X connect 81 1 74 0;
#X connect 81 2 79 0;
#X connect 83 0 73 0;
#X connect 84 0 91 0;
#X connect 85 0 92 0;
#X connect 86 0 92 1;
#X connect 88 0 86 0;
#X connect 89 0 82 0;
#X connect 89 1 80 0;
#X connect 89 1 87 0;
#X connect 90 0 79 1;
#X connect 91 0 79 1;
#X connect 92 0 76 0;
#X connect 92 1 77 0;
#X connect 92 2 78 0;
#X connect 92 3 76 0;
#X connect 93 0 102 0;
#X connect 94 0 95 0;
#X connect 94 0 93 0;
#X connect 94 0 100 0;
#X connect 95 0 94 1;
#X connect 96 0 94 1;
#X connect 97 0 105 0;
#X connect 98 0 97 0;
#X connect 99 0 105 0;
#X connect 99 1 96 0;
#X connect 101 0 104 0;
#X connect 102 0 70 0;
#X connect 102 0 113 0;
#X connect 104 0 99 0;
#X connect 104 1 103 0;
#X connect 105 0 94 0;
#X connect 107 0 72 0;
#X connect 108 0 94 0;
#X connect 109 0 101 0;
#X connect 110 0 74 1;
#X connect 112 0 102 0;
#X coords 0 -1 1 1 330 350 2 100 100;
