#N canvas 198 71 1418 692 10;
#X obj 112 100 cnv 10 150 10 empty 0-soska 2doorinen 5 5 0 10 -166441
-1 0;
#X obj 112 110 cnv 10 150 10 empty 1-soska 4fryyginen 5 5 0 10 -166441
-1 0;
#X obj 112 120 cnv 10 150 10 empty 2-soska 5lyydinen 5 5 0 10 -166441
-1 0;
#X obj 112 130 cnv 10 150 10 empty 3-soska 7miksolyydinen 5 5 0 10
-166441 -1 0;
#X obj 112 140 cnv 10 150 10 empty 4-soska 9aiolinen 5 5 0 10 -166441
-1 0;
#X obj 112 150 cnv 10 150 10 empty 5-soska 11lokrinen 5 5 0 10 -166441
-1 0;
#X obj 112 160 cnv 10 150 10 empty 6-soska 0lyydinen 5 5 0 10 -166441
-1 0;
#X obj 112 170 cnv 10 150 10 empty 7-soska 0miksolyydinen 5 5 0 10
-166441 -1 0;
#X obj 112 180 cnv 10 150 10 empty 8-soska 0mel.6-aiolinen 5 5 0 10
-166441 -1 0;
#X obj 112 190 cnv 10 150 10 empty 9-soska 0harm.1-jooninen 5 5 0 10
-166441 -1 0;
#X obj 112 200 cnv 10 150 10 empty 10-soska 1mel.5-miksolyydinen 5
5 0 10 -166441 -1 0;
#X obj 112 210 cnv 10 150 10 empty 11-soska 2miksolyydinen 5 5 0 10
-166441 -1 0;
#X obj 112 220 cnv 10 150 10 empty 12-soska 2aiolinen 5 5 0 10 -166441
-1 0;
#X obj 112 230 cnv 10 150 10 empty 13-soska 2mel.6-aiolinen 5 5 0 10
-166441 -1 0;
#X obj 112 240 cnv 10 150 10 empty 14-soska 2mel.-lokrinen 5 5 0 10
-166441 -1 0;
#X obj 112 250 cnv 10 150 10 empty 15-soska 2harm.2-doorinen 5 5 0
10 -166441 -1 0;
#X obj 112 260 cnv 10 150 10 empty 16-soska 3mel.1-jooninen 5 5 0 10
-166441 -1 0;
#X obj 112 270 cnv 10 150 10 empty 17-soska 4aiolinen 5 5 0 10 -166441
-1 0;
#X obj 112 280 cnv 10 150 10 empty 18-soska 4lokrinen 5 5 0 10 -166441
-1 0;
#X obj 112 290 cnv 10 150 10 empty 19-soska 4mel.-lokrinen 5 5 0 10
-166441 -1 0;
#X obj 112 300 cnv 10 150 10 empty 20-soska 4harm.3-fryyginen 5 5 0
10 -166441 -1 0;
#X obj 112 310 cnv 10 150 10 empty 21-soska 5jooninen 5 5 0 10 -166441
-1 0;
#X obj 112 320 cnv 10 150 10 empty 22-soska 5mel.1-jooninen 5 5 0 10
-166441 -1 0;
#X obj 112 330 cnv 10 150 10 empty 23-soska 5mel.2-doorinen 5 5 0 10
-166441 -1 0;
#X obj 112 340 cnv 10 150 10 empty 24-soska 5harm.4-lyydinen 5 5 0
10 -166441 -1 0;
#X obj 112 350 cnv 10 150 10 empty 25-soska 6lokrinen 5 5 0 10 -166441
-1 0;
#X obj 112 360 cnv 10 150 10 empty 26-soska 7jooninen 5 5 0 10 -166441
-1 0;
#X obj 112 370 cnv 10 150 10 empty 27-soska 7doorinen 5 5 0 10 -166441
-1 0;
#X obj 112 380 cnv 10 150 10 empty 28-soska 7mel.2-doorinen 5 5 0 10
-166441 -1 0;
#X obj 112 390 cnv 10 150 10 empty 29-soska 7mel.3-fryyginen 5 5 0
10 -166441 -1 0;
#X obj 112 400 cnv 10 150 10 empty 30-soska 8harm.5-miksolyydinen 5
5 0 10 -166441 -1 0;
#X obj 112 410 cnv 10 150 10 empty 31-soska 9doorinen 5 5 0 10 -166441
-1 0;
#X obj 112 420 cnv 10 150 10 empty 32-soska 9fryyginen 5 5 0 10 -166441
-1 0;
#X obj 112 430 cnv 10 150 10 empty 33-soska 9mel.3-fryyginen 5 5 0
10 -166441 -1 0;
#X obj 112 440 cnv 10 150 10 empty 34-soska 9mel.4-lyydinen 5 5 0 10
-166441 -1 0;
#X obj 266 100 cnv 10 150 10 empty 0-esoska 0mel.5-miksolyydinen 5
5 0 10 -33289 -262144 0;
#X obj 266 110 cnv 10 150 10 empty 1-esoska 1jooninen 5 5 0 10 -33289
-262144 0;
#X obj 266 120 cnv 10 150 10 empty 2-esoska 1doorinen 5 5 0 10 -33289
-262144 0;
#X obj 266 130 cnv 10 150 10 empty 3-esoska 1miksolyydinen 5 5 0 10
-33289 -262144 0;
#X obj 266 140 cnv 10 150 10 empty 4-esoska 1mel.6-aiolinen 5 5 0 10
-33289 -262144 0;
#X obj 266 150 cnv 10 150 10 empty 5-esoska 3doorinen 5 5 0 10 -33289
-262144 0;
#X obj 266 160 cnv 10 150 10 empty 6-esoska 3fryyginen 5 5 0 10 -33289
-262144 0;
#X obj 266 170 cnv 10 150 10 empty 7-esoska 3aiolinen 5 5 0 10 -33289
-262144 0;
#X obj 266 180 cnv 10 150 10 empty 8-esoska 3mel.-lokrinen 5 5 0 10
-33289 -262144 0;
#X obj 266 190 cnv 10 150 10 empty 9-esoska 4lyydinen 5 5 0 10 -33289
-262144 0;
#X obj 266 200 cnv 10 150 10 empty 10-esoska 4mel.1-jooninen 5 5 0
10 -33289 -262144 0;
#X obj 266 210 cnv 10 150 10 empty 11-esoska 5fryyginen 5 5 0 10 -33289
-262144 0;
#X obj 266 220 cnv 10 150 10 empty 12-esoska 5lokrinen 5 5 0 10 -33289
-262144 0;
#X obj 266 230 cnv 10 150 10 empty 13-esoska 6jooninen 5 5 0 10 -33289
-262144 0;
#X obj 266 240 cnv 10 150 10 empty 14-esoska 6lyydinen 5 5 0 10 -33289
-262144 0;
#X obj 266 250 cnv 10 150 10 empty 15-esoska 6miksolyydinen 5 5 0 10
-33289 -262144 0;
#X obj 266 260 cnv 10 150 10 empty 16-esoska 6mel.2-doorinen 5 5 0
10 -33289 -262144 0;
#X obj 266 270 cnv 10 150 10 empty 17-esoska 8doorinen 5 5 0 10 -33289
-262144 0;
#X obj 266 280 cnv 10 150 10 empty 18-esoska 8miksolyydinen 5 5 0 10
-33289 -262144 0;
#X obj 266 290 cnv 10 150 10 empty 19-esoska 8aiolinen 5 5 0 10 -33289
-262144 0;
#X obj 266 300 cnv 10 150 10 empty 20-esoska 8mel.3-fryyginen 5 5 0
10 -33289 -262144 0;
#X obj 266 310 cnv 10 150 10 empty 21-esoska 10fryyginen 5 5 0 10 -33289
-262144 0;
#X obj 266 320 cnv 10 150 10 empty 22-esoska 10aiolinen 5 5 0 10 -33289
-262144 0;
#X obj 266 330 cnv 10 150 10 empty 23-esoska 10lokrinen 5 5 0 10 -33289
-262144 0;
#X obj 266 340 cnv 10 150 10 empty 24-esoska 10mel.4-lyydinen 5 5 0
10 -33289 -262144 0;
#X obj 266 350 cnv 10 150 10 empty 25-esoska 11jooninen 5 5 0 10 -33289
-262144 0;
#X obj 266 360 cnv 10 150 10 empty 26-esoska 11lyydinen 5 5 0 10 -33289
-262144 0;
#X obj 266 370 cnv 10 150 10 empty 27-esoska 11jooninen 5 5 0 10 -33289
-262144 0;
#X obj 266 380 cnv 10 150 10 empty 28-esoska 0fryyginen 5 5 0 10 -33289
-262144 0;
#X obj 266 390 cnv 10 150 10 empty 29-esoska 0mel.4-lyydinen 5 5 0
10 -33289 -262144 0;
#X obj 266 400 cnv 10 150 10 empty 30-esoska 0harm.5-miksolyydinen
5 5 0 10 -33289 -262144 0;
#X obj 266 410 cnv 10 150 10 empty 31-esoska 0harm.7 5 5 0 10 -33289
-262144 0;
#X obj 266 420 cnv 10 150 10 empty 32-esoska 1lyydinen 5 5 0 10 -33289
-262144 0;
#X obj 266 430 cnv 10 150 10 empty 33-esoska 1aiolinen 5 5 0 10 -33289
-262144 0;
#X obj 266 440 cnv 10 150 10 empty 34-esoska 1mel.2-doorinen 5 5 0
10 -33289 -262144 0;
#N canvas 872 72 450 647 muodosta_nimi_osalle 0;
#X symbolatom 203 450 10 0 0 0 - - -;
#X obj 203 431 makesymbol %s%s;
#X msg 196 343 list \$1 \$2;
#X obj 203 412 pack s s;
#X floatatom 230 93 5 0 0 0 - - -;
#X obj 225 243 ftos;
#X obj 107 215 symbol;
#X obj 193 262 symbol;
#X obj 124 243 t b s;
#X obj 173 74 unpack f f;
#X obj 177 46 inlet;
#X obj 293 45 inlet;
#X obj 203 495 outlet;
#X obj 107 196 skaala_nimi;
#X obj 245 220 -;
#X connect 0 0 12 0;
#X connect 1 0 0 0;
#X connect 3 0 1 0;
#X connect 4 0 14 0;
#X connect 5 0 7 1;
#X connect 6 0 8 0;
#X connect 7 0 3 0;
#X connect 8 0 7 0;
#X connect 8 1 3 1;
#X connect 9 0 13 0;
#X connect 9 1 4 0;
#X connect 10 0 9 0;
#X connect 11 0 14 1;
#X connect 13 0 6 0;
#X connect 14 0 5 0;
#X restore -549 79 pd muodosta_nimi_osalle;
#X obj -378 79 r \$0-monesko_soska;
#X obj -634 237 f;
#X obj -601 291 s \$0-monesko_soska;
#X obj -632 321 s \$0-soskat_taynna;
#X obj -619 199 r \$0-soskat-alusta;
#X floatatom -575 273 5 0 0 0 - - -;
#X obj -609 237 + 1;
#X msg -619 218 0;
#X msg -576 17 get \$1;
#X obj -576 -9 f;
#X obj -552 -11 - 1;
#X msg -515 -53 7;
#X msg -576 -127 stop;
#X obj -576 -144 r \$0-soskat_taynna;
#X obj -542 -104 t b b;
#X obj -527 -12 s \$0-monesko_soskan_aste;
#X obj -409 -132 bng 15 250 50 0 empty empty empty 17 7 0 10 -262144
-1 -1;
#X obj -576 36 h_multimap konsonator_skoret;
#X obj -409 -76 s \$0-soskat-alusta;
#X obj -423 -104 t b b;
#X obj -549 98 canvas_argumentor label soska;
#X obj -562 -40 bng 15 250 50 0 empty empty empty 17 7 0 10 -262144
-1 -1;
#X obj -395 -175 inlet;
#X obj -330 -36 inlet;
#X text -378 59 pohja-aani;
#X msg 596 107 2 22;
#X msg 594 139 1 22;
#X msg 638 142 0 22;
#X obj 628 40 bng 15 250 50 0 empty empty empty 17 7 0 10 -262144 -1
-1;
#X floatatom 683 0 5 0 0 0 - - -;
#X obj 683 -19 r \$0-monesko_soskan_aste;
#X obj 628 61 demux 7 6 5 4;
#X obj 468 197 canvas_argumentor color soska;
#X obj -576 59 t b l;
#X obj 112 450 cnv 10 150 10 empty 35-soska 9harm.6-aiolinen 5 5 0
10 -166441 -1 0;
#X obj 112 460 cnv 10 150 10 empty 36-soska 10lyydinen 5 5 0 10 -166441
-1 0;
#X obj 112 470 cnv 10 150 10 empty 37-soska 11fryyginen 5 5 0 10 -166441
-1 0;
#X obj 112 480 cnv 10 150 10 empty 38-soska 11mel.4-lyydinen 5 5 0
10 -166441 -1 0;
#X obj 112 490 cnv 10 150 10 empty 39-soska 11mel.5-miksolyydinen 5
5 0 10 -166441 -1 0;
#X obj 112 500 cnv 10 150 10 empty 40-soska 11harm.7 5 5 0 10 -166441
-1 0;
#X obj 112 510 cnv 10 150 10 empty 41-soska -4harm.1-jooninen 5 5 0
10 -166441 -1 0;
#X obj 266 450 cnv 10 150 10 empty 35-esoska 1mel.3-fryyginen 5 5 0
10 -33289 -262144 0;
#X obj 266 460 cnv 10 150 10 empty 36-esoska 1mel.-lokrinen 5 5 0 10
-33289 -262144 0;
#X obj 266 470 cnv 10 150 10 empty 37-esoska 1harm.1-jooninen 5 5 0
10 -33289 -262144 0;
#X obj 266 480 cnv 10 150 10 empty 38-esoska 1harm.2-doorinen 5 5 0
10 -33289 -262144 0;
#X obj 266 490 cnv 10 150 10 empty 39-esoska 1harm.6-aiolinen 5 5 0
10 -33289 -262144 0;
#X obj 266 500 cnv 10 150 10 empty 40-esoska 2mel.5-miksolyydinen 5
5 0 10 -33289 -262144 0;
#X obj 266 510 cnv 10 150 10 empty 41-esoska 7harm.5-miksolyydinen
5 5 0 10 -33289 -262144 0;
#X obj -634 259 sel 41;
#N canvas 872 72 450 647 muodosta_nimi_osalle 0;
#X symbolatom 203 450 10 0 0 0 - - -;
#X obj 203 431 makesymbol %s%s;
#X msg 196 343 list \$1 \$2;
#X obj 203 412 pack s s;
#X floatatom 230 93 5 0 0 0 - - -;
#X obj 225 243 ftos;
#X obj 107 215 symbol;
#X obj 193 262 symbol;
#X obj 124 243 t b s;
#X obj 173 74 unpack f f;
#X obj 177 46 inlet;
#X obj 293 45 inlet;
#X obj 203 495 outlet;
#X obj 107 196 skaala_nimi;
#X obj 245 220 -;
#X connect 0 0 12 0;
#X connect 1 0 0 0;
#X connect 3 0 1 0;
#X connect 4 0 14 0;
#X connect 5 0 7 1;
#X connect 6 0 8 0;
#X connect 7 0 3 0;
#X connect 8 0 7 0;
#X connect 8 1 3 1;
#X connect 9 0 13 0;
#X connect 9 1 4 0;
#X connect 10 0 9 0;
#X connect 11 0 14 1;
#X connect 13 0 6 0;
#X connect 14 0 5 0;
#X restore -197 97 pd muodosta_nimi_osalle;
#X obj -282 255 f;
#X floatatom -223 291 5 0 0 0 - - -;
#X obj -257 255 + 1;
#X msg -267 236 0;
#X msg -224 35 get \$1;
#X obj -224 9 f;
#X msg -224 -109 stop;
#X obj -190 -86 t b b;
#X obj -70 -149 bng 15 250 50 0 empty empty empty 17 7 0 10 -262144
-1 -1;
#X obj -71 -86 t b b;
#X obj -210 -22 bng 15 250 50 0 empty empty empty 17 7 0 10 -262144
-1 -1;
#X text -26 77 pohja-aani;
#X obj -224 77 t b l;
#X obj -282 277 sel 41;
#X obj -224 -126 r \$0-esoskat_taynna;
#X obj -175 6 s \$0-monesko_esoskan_aste;
#X obj -224 54 h_multimap konsonator_falet;
#X obj -197 116 canvas_argumentor label esoska;
#X obj -26 97 r \$0-monesko_esoska;
#X obj -267 217 r \$0-esoskat-alusta;
#X obj -249 309 s \$0-monesko_esoska;
#X obj -282 339 s \$0-esoskat_taynna;
#X obj -576 -79 metro 500;
#X obj -223 -61 metro 500;
#X obj -359 -150 del 1200;
#X msg -163 -35 5;
#X obj -200 7 - 1;
#X obj -57 -58 s \$0-esoskat-alusta;
#X connect 70 0 91 0;
#X connect 71 0 91 1;
#X connect 72 0 77 0;
#X connect 72 0 119 0;
#X connect 75 0 78 0;
#X connect 77 0 72 1;
#X connect 78 0 72 1;
#X connect 79 0 88 0;
#X connect 80 0 81 0;
#X connect 80 0 79 0;
#X connect 80 0 86 0;
#X connect 81 0 80 1;
#X connect 82 0 80 1;
#X connect 83 0 143 0;
#X connect 84 0 83 0;
#X connect 85 0 143 0;
#X connect 85 1 82 0;
#X connect 87 0 90 0;
#X connect 88 0 104 0;
#X connect 90 0 85 0;
#X connect 90 1 89 0;
#X connect 92 0 80 0;
#X connect 93 0 87 0;
#X connect 93 0 145 0;
#X connect 94 0 70 1;
#X connect 94 0 120 1;
#X connect 96 0 103 0;
#X connect 97 0 103 0;
#X connect 98 0 103 0;
#X connect 99 0 102 0;
#X connect 100 0 102 1;
#X connect 101 0 100 0;
#X connect 102 0 96 0;
#X connect 102 1 97 0;
#X connect 102 2 98 0;
#X connect 102 3 96 0;
#X connect 104 0 72 0;
#X connect 104 1 70 0;
#X connect 119 0 74 0;
#X connect 119 1 73 0;
#X connect 119 1 76 0;
#X connect 120 0 138 0;
#X connect 121 0 123 0;
#X connect 121 0 134 0;
#X connect 123 0 121 1;
#X connect 124 0 121 1;
#X connect 125 0 137 0;
#X connect 126 0 125 0;
#X connect 126 0 136 0;
#X connect 126 0 147 0;
#X connect 127 0 144 0;
#X connect 128 0 144 0;
#X connect 128 1 146 0;
#X connect 129 0 130 0;
#X connect 130 0 128 0;
#X connect 130 1 148 0;
#X connect 131 0 126 0;
#X connect 133 0 121 0;
#X connect 133 1 120 0;
#X connect 134 0 142 0;
#X connect 134 1 122 0;
#X connect 134 1 141 0;
#X connect 135 0 127 0;
#X connect 137 0 133 0;
#X connect 139 0 138 1;
#X connect 140 0 124 0;
#X connect 143 0 80 0;
#X connect 144 0 126 0;
#X connect 145 0 129 0;
#X connect 146 0 126 1;
#X connect 147 0 126 1;
#X coords 0 -1 1 1 330 420 2 100 100;
