#N canvas 862 74 773 533 10;
#X text 28 -15 laskee kyseisist‰ luvuista saadut kertym‰t... 1 2 1
1 2 2 1 = 1 2 3 4 7 9 10 Ottaa vastaan listan \, palauttaa listan;
#X obj 175 75 unpack f f f f f f f;
#X obj 301 106 +;
#X obj 277 106 +;
#X obj 253 106 +;
#X obj 229 106 +;
#X obj 205 106 +;
#X obj 181 106 +;
#X obj 157 106 +;
#X floatatom 159 136 5 0 0 0 - - -;
#X floatatom 183 136 5 0 0 0 - - -;
#X floatatom 206 136 5 0 0 0 - - -;
#X floatatom 231 136 5 0 0 0 - - -;
#X floatatom 254 136 5 0 0 0 - - -;
#X floatatom 279 136 5 0 0 0 - - -;
#X floatatom 306 136 5 0 0 0 - - -;
#X obj 272 358 outlet;
#X text 414 -8 Toinen inilet on pohja‰‰nelle;
#X obj 128 50 t b l;
#X msg 81 120 0;
#X obj 323 208 list length;
#X obj 272 299 serialize;
#X obj 300 52 t l 0 l;
#X obj 300 10 inlet;
#X obj 272 334 list-rev;
#X obj 182 396 print;
#X obj 323 251 + 1;
#X obj 402 31 inlet;
#X obj 402 53 t b f;
#X msg 429 80 set \$1;
#X obj 300 32 l;
#X connect 1 0 8 1;
#X connect 1 1 7 1;
#X connect 1 2 6 1;
#X connect 1 3 5 1;
#X connect 1 4 4 1;
#X connect 1 5 3 1;
#X connect 1 6 2 1;
#X connect 2 0 15 0;
#X connect 3 0 2 0;
#X connect 3 0 14 0;
#X connect 4 0 3 0;
#X connect 4 0 13 0;
#X connect 5 0 4 0;
#X connect 5 0 12 0;
#X connect 6 0 5 0;
#X connect 6 0 11 0;
#X connect 7 0 6 0;
#X connect 7 0 10 0;
#X connect 8 0 7 0;
#X connect 8 0 9 0;
#X connect 9 0 21 0;
#X connect 10 0 21 0;
#X connect 11 0 21 0;
#X connect 12 0 21 0;
#X connect 13 0 21 0;
#X connect 14 0 21 0;
#X connect 15 0 21 0;
#X connect 18 0 19 0;
#X connect 18 1 1 0;
#X connect 19 0 8 0;
#X connect 19 0 21 0;
#X connect 20 0 26 0;
#X connect 21 0 24 0;
#X connect 22 0 18 0;
#X connect 22 1 2 1;
#X connect 22 1 3 1;
#X connect 22 1 4 1;
#X connect 22 1 5 1;
#X connect 22 1 6 1;
#X connect 22 1 7 1;
#X connect 22 1 8 1;
#X connect 22 2 20 0;
#X connect 23 0 30 0;
#X connect 24 0 16 0;
#X connect 24 0 25 0;
#X connect 26 0 21 1;
#X connect 27 0 28 0;
#X connect 28 0 30 0;
#X connect 28 1 29 0;
#X connect 29 0 19 0;
#X connect 30 0 22 0;
