#N canvas 688 69 893 644 10;
#X obj 101 101 cnv 15 20 24 empty \$0-1 0 1 12 0 14 -134753 -262144
0;
#X obj 124 101 cnv 15 20 24 empty \$0-2 2 1 12 0 14 -194593 -262144
0;
#X obj 147 101 cnv 15 20 24 empty \$0-3 4 1 12 0 14 -194593 -262144
0;
#X obj 170 101 cnv 15 20 24 empty \$0-4 5 1 12 0 14 -134113 -262144
0;
#X obj 193 101 cnv 15 20 24 empty \$0-5 7 1 12 0 14 -134113 -262144
0;
#X obj 216 101 cnv 15 20 24 empty \$0-6 9 1 12 0 14 -194593 -262144
0;
#X obj 239 101 cnv 15 20 24 empty \$0-7 11 1 12 0 14 -194593 -262144
0;
#X obj 262 101 cnv 15 20 24 empty \$0-8 12 1 12 0 14 -134753 -262144
0;
#X floatatom -57 181 21 0 21 0 - - -;
#X obj -57 218 summaa_intervallit;
#X obj -57 199 skaala_intervallit;
#N canvas 0 0 574 518 varita_skaalan_intervallit 0;
#X obj 175 297 f;
#X obj 175 314 + 1;
#X obj 169 534 s \$0-1;
#X obj 179 544 s \$0-2;
#X obj 189 554 s \$0-3;
#X obj 199 564 s \$0-4;
#X obj 251 537 s \$0-5;
#X obj 261 547 s \$0-6;
#X obj 271 557 s \$0-7;
#X obj 281 567 s \$0-8;
#X obj 190 241 loadbang;
#X obj 119 287 t f b;
#X msg 120 360 color \$1;
#X msg 190 262 -1;
#X obj 178 453 demux 0 1 2 3 4 5 6 7;
#X obj 2 220 list-drip;
#X msg 61 360 label \$1;
#X obj 2 319 makefilename %d;
#X obj 2 140 inlet;
#X obj 132 106 inlet;
#X text 169 105 valitsin \, jonka pohjalta lasketaan dissonanssit;
#X obj 2 239 varita;
#X connect 0 0 1 0;
#X connect 1 0 0 1;
#X connect 1 0 14 1;
#X connect 10 0 13 0;
#X connect 11 0 12 0;
#X connect 11 1 0 0;
#X connect 12 0 14 0;
#X connect 13 0 0 1;
#X connect 14 0 2 0;
#X connect 14 1 3 0;
#X connect 14 2 4 0;
#X connect 14 3 5 0;
#X connect 14 4 6 0;
#X connect 14 5 7 0;
#X connect 14 6 8 0;
#X connect 14 7 9 0;
#X connect 15 0 17 0;
#X connect 15 0 21 0;
#X connect 15 1 13 0;
#X connect 16 0 14 0;
#X connect 17 0 16 0;
#X connect 18 0 15 0;
#X connect 21 0 11 0;
#X restore -122 245 pd varita_skaalan_intervallit;
#X obj 259 362 inlet;
#X text 85 160 vertailukohdan valitsin;
#X obj 294 261 loadbang;
#X obj 455 108 receive;
#X obj 294 282 symbol \$1;
#X obj 613 330 print;
#X obj 294 311 select edellinen seuraava kaikki;
#X text 113 15 vastaanottaa skaalan h_mapilta (joka on kyseisen tulostimen
järjestysnumero);
#X obj 259 381 f;
#X obj 309 436 - 1;
#X obj 339 436 + 1;
#X obj 339 416 f;
#X obj 309 416 f;
#X obj 187 334 l;
#X obj 309 478 h_map \$0-osat;
#X msg 309 457 get \$1;
#N canvas 670 311 731 543 lista-jakauma 0;
#X text 52 92 laskee kaikkien lukujen n insidenssit/aksidenssit silloin
kun luku 0 < n 12;
#X msg 545 191 0 0 0 0 0 0 0 0 0 0 0 0;
#X obj 446 337 list;
#X obj 401 402 l;
#X obj 446 207 l;
#X obj 446 228 t l l;
#X obj 518 106 list-drip;
#X obj 518 125 t b f f;
#X obj 401 430 outlet;
#X obj 491 56 h_map \$0-savelet_lkm;
#X msg 491 36 values;
#X obj 515 -24 bng 15 250 50 0 empty empty empty 17 7 0 10 -262144
-1 -1;
#X obj 489 338 - 1;
#X obj 516 0 t b b b;
#X msg 555 20 getsize;
#X obj 491 106 f;
#X obj 449 121 - 1;
#X obj 491 76 t b l;
#X obj 491 145 sel 0;
#X obj 446 381 list-splat -1;
#X obj 446 357 list-swap 12 12;
#X obj 467 280 list-idx;
#X obj 467 310 + 1;
#X obj 514 246 - 1;
#X obj 515 -83 inlet;
#X text 207 163 comment;
#X text 521 90 tähän spigot joka ottaa viereisen iteraattorin alku-
ja loppuarvoiksi mikäli haluaa verrata vain tiettyyn osaan;
#X connect 1 0 4 1;
#X connect 2 0 20 0;
#X connect 3 0 8 0;
#X connect 4 0 5 0;
#X connect 5 0 2 0;
#X connect 5 1 21 0;
#X connect 6 0 7 0;
#X connect 7 0 4 0;
#X connect 7 1 23 0;
#X connect 7 2 12 0;
#X connect 9 0 17 0;
#X connect 9 1 15 0;
#X connect 10 0 9 0;
#X connect 11 0 13 0;
#X connect 12 0 20 1;
#X connect 13 0 10 0;
#X connect 13 1 1 0;
#X connect 13 2 14 0;
#X connect 14 0 9 0;
#X connect 15 0 18 0;
#X connect 16 0 15 1;
#X connect 17 0 15 0;
#X connect 17 1 6 0;
#X connect 18 0 3 0;
#X connect 18 1 16 0;
#X connect 19 0 3 1;
#X connect 19 0 4 1;
#X connect 20 0 19 0;
#X connect 21 0 22 0;
#X connect 22 0 2 1;
#X connect 23 0 21 1;
#X connect 24 0 11 0;
#X restore 420 377 pd lista-jakauma;
#X text 520 376 laskee koko paskan sisältämät nuottien insidenssit
;
#X connect 8 0 10 0;
#X connect 9 0 11 0;
#X connect 10 0 9 0;
#X connect 12 0 20 0;
#X connect 14 0 16 0;
#X connect 16 0 18 0;
#X connect 18 0 24 0;
#X connect 18 1 23 0;
#X connect 18 2 28 0;
#X connect 18 3 17 0;
#X connect 20 0 24 1;
#X connect 20 0 23 1;
#X connect 21 0 27 0;
#X connect 22 0 27 0;
#X connect 23 0 22 0;
#X connect 24 0 21 0;
#X connect 25 0 10 0;
#X connect 27 0 26 0;
#X coords 0 -1 1 1 183 26 2 100 100;
