#N canvas 0 24 1129 730 10;
#X obj 29 2 iv-tulostin;
#X obj 2 58 hertsitulostin;
#X obj 56 31 cnv 15 32 24 empty \$0-tulostus_nykyinen_osa_savel D$
2 12 0 14 -262144 -66577 0;
#X obj 90 31 cnv 15 200 24 empty \$0-tulostus_nykyinen_osa_skaala doorinen
2 12 0 14 -262144 -66577 0;
#X text 350 29 \$0-tulostus_nykyinen_osa_savel;
#X text 351 41 \$0-tulostus_nykyinen_osa_skaala;
#X obj 603 132 l;
#X obj 604 158 list-map;
#X floatatom 747 108 5 0 0 0 - - -;
#X obj 579 46 r \$0-nykyinen_osa_skaala;
#X obj 761 56 r \$0-nykyinen_osa_savel;
#X obj 527 119 skaala_nimi;
#X obj 527 272 s \$0-tulostus_nykyinen_osa_skaala;
#X msg 521 224 label \$1;
#X obj 508 355 print listmap;
#X text 43 453 E;
#X text 42 436 A;
#X text 43 419 D;
#X text 43 403 G;
#X text 43 385 B;
#X text 43 367 E;
#X text 539 163 SKAALA;
#X text 487 188 POHJAÄÄNI TRANSPON;
#X obj 359 857 s \$0-nykyinen_osa_skaala;
#X obj 431 880 s \$0-nykyinen_osa_savel;
#X floatatom 358 830 5 0 27 0 - - -;
#X floatatom 433 826 5 0 12 0 - - -;
#X obj 603 90 skaala_intervallit;
#X obj 603 110 summaa_intervallit;
#X obj 7 375 koskettimet;
#X obj 52 371 otelauta_oktaavi2;
#X obj 366 793 unpack f f;
#X obj 366 770 h_map \$0-osat;
#X msg 366 750 get \$1;
#X obj 354 715 laskuri 64;
#X obj 322 6 bng 24 250 50 0 \$0-tilaa_seuraava_osa empty empty 17
7 0 10 -262144 -1 -1;
#X obj 3 6 bng 24 250 50 0 \$0-tilaa_edellinen_osa empty empty 17 7
0 10 -262144 -1 -1;
#X obj 3 6 cnv 24 24 24 \$0-edellinen_osa empty << 0 12 0 20 -262144
-66577 0;
#X obj 322 6 cnv 24 24 24 \$0-seuraava_osa empty >> 0 12 0 20 -262144
-66577 0;
#X obj 559 694 r \$0-tilaa_seuraava_osa;
#X obj 365 685 r \$0-tilaa_edellinen_osa;
#N canvas 0 0 450 300 lisaa_osa 0;
#X obj 58 93 r \$0-osan_numero;
#X obj 181 115 f;
#X obj 281 115 t b f;
#X obj 181 141 pack f f;
#X obj 115 214 h_map \$0-osat;
#X obj 70 150 f;
#X obj 163 170 t b l;
#X obj 58 214 del 1500;
#X obj 58 235 s \$0-uusi_osa;
#X msg 70 172 add \$1;
#X text 86 24 valitsimet lisäävät osan joko suoraan kun käyttämättömän
osan numero valitaan tai sitten kun semmoinen erikseen syötetään klikkaamalla
osan numeroa;
#X obj 58 114 t f b;
#X obj 280 94 r \$0-osan_savel;
#X obj 181 94 r \$0-osan_skaala;
#X msg 306 223 print;
#X connect 0 0 11 0;
#X connect 1 0 3 0;
#X connect 2 0 1 0;
#X connect 2 1 3 1;
#X connect 3 0 6 0;
#X connect 5 0 9 0;
#X connect 6 1 4 1;
#X connect 7 0 8 0;
#X connect 9 0 4 0;
#X connect 11 0 5 0;
#X connect 11 1 1 0;
#X connect 11 1 7 0;
#X connect 12 0 2 0;
#X connect 13 0 1 0;
#X connect 14 0 4 0;
#X restore 352 536 pd lisaa_osa;
#N canvas 0 0 450 300 saveltimelta 0;
#X obj 6 14 r \$0-osan_numero;
#X obj 129 15 r \$0-osan_savel;
#X obj 229 15 r \$0-osan_skaala;
#X text 127 27 näiden muuttaminen päivittää osalistauksen. Järjestysnumeron
muuttaminen ei sitä tee.;
#X obj 1 91 s \$0-konsonanssit;
#X text 115 93 lista jossa 12 arvoa \, kukin 0 - 1 \, siten että kaikki
yhteenlaskettuna on 1;
#X restore 430 536 pd saveltimelta;
#N canvas 0 0 450 300 laske_konsonanssit 0;
#X obj 63 200 /;
#X msg 61 112 values;
#X msg 115 112 get \$1;
#X obj 63 229 serialize 12;
#X obj 63 253 s \$0-konsonanssit;
#X obj 226 167 r \$0-savelet_lkm_yht;
#X obj 61 143 h_map \$0-savelet_lkm;
#X obj 231 234 print;
#X obj 226 188 t b;
#X obj 226 209 del 2000;
#X connect 0 0 3 0;
#X connect 1 0 6 0;
#X connect 2 0 6 0;
#X connect 3 0 4 0;
#X connect 3 0 7 0;
#X connect 5 0 0 1;
#X connect 5 0 8 0;
#X connect 6 0 0 0;
#X connect 8 0 9 0;
#X connect 9 0 1 0;
#X restore 526 536 pd laske_konsonanssit;
#N canvas 0 345 1150 393 valitsimet 0;
#X obj 71 202 laskuri 12;
#X obj 70 145 laskuri 25;
#X obj 395 100 bng 24 250 50 0 empty empty empty 17 7 0 10 -262144
-1 -1;
#X obj 395 100 cnv 24 24 24 \$0-seuraava_osa empty >> 0 12 0 20 -262144
-66577 0;
#X obj 125 100 cnv 15 120 24 empty \$0-valitsimet_atm_skaala jooninen
3 12 0 14 -262144 -66577 0;
#X obj 320 100 bng 24 250 50 0 empty empty empty 17 7 0 10 -262144
-1 -1;
#X obj 320 100 cnv 24 24 24 \$0-seuraava_osa empty >> 0 12 0 20 -262144
-66577 0;
#X obj 339 100 bng 24 250 50 0 empty empty 1 17 9 0 10 -262144 -1 -1
;
#X obj 339 100 cnv 24 24 24 \$0-edellinen_osa empty << 0 12 0 20 -262144
-66577 0;
#X obj 289 100 cnv 15 30 24 empty \$0-valitsimet_atm_savel C$ 6 12
0 14 -262144 -66577 0;
#X obj 246 100 bng 24 250 50 0 empty empty empty 17 7 0 10 -262144
-1 -1;
#X obj 246 100 cnv 24 24 24 \$0-seuraava_osa empty >> 0 12 0 20 -262144
-66577 0;
#X obj 265 100 bng 24 250 50 0 empty empty empty 17 7 0 10 -262144
-1 -1;
#X obj 265 100 cnv 24 24 24 \$0-edellinen_osa empty << 0 12 0 20 -262144
-66577 0;
#X obj 100 100 bng 24 250 50 0 empty empty empty 17 7 0 10 -262144
-1 -1;
#X obj 100 100 cnv 24 24 24 \$0-edellinen_osa empty << 0 12 0 20 -262144
-66577 0;
#X obj 365 100 bng 24 250 50 0 \$0-tulostimelle_lisaa_skaala empty
empty 17 7 0 10 -262144 -1 -1;
#X obj 364 100 cnv 15 30 24 empty \$0-tulostimen_atm_osa 7 3 12 0 12
-262144 -66577 0;
#X obj 71 262 laskuri 64;
#X msg -141 135 label \$1;
#X obj -141 153 s \$0-valitsimet_atm_skaala;
#X obj -140 174 m2n;
#X msg -140 192 label \$1;
#X msg -139 261 label \$1;
#X obj -139 279 s \$0-tulostimen_atm_osa;
#X obj -140 212 s \$0-valitsimet_atm_savel;
#X obj -139 244 ftos;
#X obj -11 252 + 1;
#X obj 608 249 s \$0-osan_skaala;
#X obj 577 201 s \$0-osan_savel;
#X obj 605 292 s \$0-osan_numero;
#X obj 524 140 h_map \$0-osat;
#X msg 524 120 get \$1;
#X obj 524 90 t f f;
#X obj -141 117 skaala_nimi;
#X obj 354 325 outlet;
#X obj 358 286 pack f f f;
#X obj 63 293 t f f;
#X obj 414 209 f;
#X obj 429 319 list;
#X obj 422 104 bng 15 250 50 0 empty empty empty 17 7 0 10 -262144
-1 -1;
#X connect 0 0 21 0;
#X connect 0 0 36 2;
#X connect 1 0 34 0;
#X connect 1 0 36 1;
#X connect 2 0 18 1;
#X connect 5 0 0 1;
#X connect 7 0 18 0;
#X connect 10 0 1 1;
#X connect 12 0 0 0;
#X connect 14 0 1 0;
#X connect 16 0 38 0;
#X connect 18 0 37 0;
#X connect 19 0 20 0;
#X connect 21 0 22 0;
#X connect 22 0 25 0;
#X connect 23 0 24 0;
#X connect 26 0 23 0;
#X connect 27 0 26 0;
#X connect 31 2 38 0;
#X connect 32 0 31 0;
#X connect 33 0 32 0;
#X connect 33 1 38 1;
#X connect 34 0 19 0;
#X connect 36 0 39 1;
#X connect 37 0 27 0;
#X connect 37 1 33 0;
#X connect 38 0 36 0;
#X connect 39 0 35 0;
#X connect 40 0 39 0;
#X coords 0 -1 1 1 340 24 1 100 100;
#X restore 2 489 pd valitsimet;
#N canvas 0 0 450 300 laske_konsonanssi 0;
#X obj 258 47 r \$0-konsonanssit;
#X obj 230 128 list-minmax;
#X obj 135 132 packel;
#X obj 135 63 inlet;
#X obj 162 109 f;
#X obj 258 70 t l l;
#X obj 305 195 /;
#X obj 293 152 t b f;
#X msg 292 174 1;
#X obj 135 109 l;
#X obj 135 83 t b f;
#X obj 135 159 *;
#X obj 135 206 outlet;
#X text 136 16 palauttaa yksittäisen äänen konsonanssin (0 - 1);
#X connect 0 0 5 0;
#X connect 1 1 7 0;
#X connect 2 0 11 0;
#X connect 3 0 10 0;
#X connect 4 0 2 1;
#X connect 5 0 1 0;
#X connect 5 1 9 1;
#X connect 6 0 11 1;
#X connect 7 0 8 0;
#X connect 7 1 6 1;
#X connect 8 0 6 0;
#X connect 9 0 2 0;
#X connect 10 0 9 0;
#X connect 10 1 4 0;
#X connect 11 0 12 0;
#X restore 658 536 pd laske_konsonanssi;
#N canvas 1168 343 450 570 laske_savelet 0;
#X obj 64 11 r \$0-uusi_osa;
#X msg 378 194 0;
#X msg 278 196 add \$1;
#X obj 245 134 f;
#X obj 270 134 + 1;
#X obj 245 155 sel 12;
#X obj 278 176 t f b;
#X obj 64 31 t b b;
#X msg 211 103 stop;
#X obj 245 84 t b b;
#X msg 310 101 0;
#X obj 278 216 h_map \$0-savelet_lkm;
#X obj 245 66 bng 15 250 50 0 empty empty empty 17 7 0 10 -262144 -1
-1;
#X obj 245 103 metro 1;
#X obj 52 104 h_map \$0-osat;
#X msg 52 84 values;
#X obj 29 155 skaala_intervallit;
#X obj 29 134 unpack f f;
#X obj 29 175 summaa_intervallit_pohja-aanella;
#X obj 29 197 list-drip;
#X obj 29 217 mod 12;
#X obj 57 282 h_map \$0-savelet_lkm;
#X msg 57 262 get \$1;
#X obj 57 308 f;
#X msg 26 339 add \$1;
#X obj 57 329 + 1;
#X obj 27 361 h_map \$0-savelet_lkm;
#X obj 27 403 print;
#X obj 26 301 f;
#X obj 52 64 del 50;
#X obj 30 239 t f f;
#N canvas 0 0 450 300 alustus 0;
#X msg 802 301 0;
#X msg 845 382 0;
#X obj 787 420 h_map \$0-savelet_lkm;
#X obj 787 365 t f b;
#X obj 787 331 f;
#X obj 813 330 + 1;
#X obj 755 263 metro 40;
#X msg 695 282 stop;
#X obj 764 184 t b b;
#X obj 765 158 loadbang;
#X obj 695 261 sel 12;
#X msg 785 391 add \$1;
#X connect 0 0 4 1;
#X connect 1 0 2 1;
#X connect 3 0 11 0;
#X connect 3 1 1 0;
#X connect 4 0 5 0;
#X connect 4 0 10 0;
#X connect 5 0 4 1;
#X connect 6 0 4 0;
#X connect 7 0 6 0;
#X connect 8 0 6 0;
#X connect 8 1 0 0;
#X connect 9 0 8 0;
#X connect 10 0 7 0;
#X connect 10 1 3 0;
#X connect 11 0 2 0;
#X restore 351 20 pd alustus;
#X connect 0 0 7 0;
#X connect 1 0 11 1;
#X connect 2 0 11 0;
#X connect 3 0 4 0;
#X connect 3 0 5 0;
#X connect 4 0 3 1;
#X connect 5 0 8 0;
#X connect 5 1 6 0;
#X connect 6 0 2 0;
#X connect 6 1 1 0;
#X connect 7 0 29 0;
#X connect 7 1 12 0;
#X connect 8 0 13 0;
#X connect 9 0 13 0;
#X connect 9 1 10 0;
#X connect 10 0 3 1;
#X connect 12 0 9 0;
#X connect 13 0 3 0;
#X connect 14 0 17 0;
#X connect 15 0 14 0;
#X connect 16 0 18 0;
#X connect 17 0 16 0;
#X connect 17 1 18 1;
#X connect 18 0 19 0;
#X connect 19 0 20 0;
#X connect 20 0 30 0;
#X connect 21 0 23 0;
#X connect 22 0 21 0;
#X connect 23 0 25 0;
#X connect 24 0 26 0;
#X connect 25 0 26 1;
#X connect 26 0 27 0;
#X connect 28 0 24 0;
#X connect 29 0 15 0;
#X connect 30 0 28 0;
#X connect 30 1 22 0;
#X restore 850 536 pd laske_savelet;
#N canvas 0 0 450 300 tulosta_midinote 0;
#X obj -247 12 inlet;
#X obj -247 40 m2n;
#X obj -247 144 s \$0-tulostus_nykyinen_osa_savel;
#X msg -247 91 label \$1;
#X connect 0 0 1 0;
#X connect 1 0 3 0;
#X connect 3 0 2 0;
#X restore 808 113 pd tulosta_midinote;
#X obj 199 371 otelauta_oktaavi2;
#X obj 765 490 del 1500;
#X obj 783 569 print;
#X obj 598 187 s \$0-tulostin_skaala_transponoitu;
#X obj 356 138 r \$0-tulostin_skaala_transponoitu;
#X obj 789 443 r \$0-tulostin_skaala_transponoitu;
#X obj 789 464 t b l;
#X obj 781 507 l;
#X msg 844 494 2;
#X obj 14 529 soska;
#X obj 584 409 r \$0-nykyinen_osa_savel;
#X obj 1070 116 h_map \$0-osat;
#X obj 433 917 unpack f f f;
#X obj 354 943 s \$0-osan_numero;
#X obj 462 943 s \$0-osan_skaala;
#X obj 576 944 s \$0-osan_savel;
#X floatatom 648 918 5 0 0 0 - - -;
#X floatatom 689 916 5 0 0 0 - - -;
#X floatatom 726 915 5 0 0 0 - - -;
#X obj 372 338 r \$0-nykyinen_osa_savel;
#X obj 383 413 bng 15 250 50 0 empty empty empty 17 7 0 10 -262144
-1 -1;
#X obj 786 269 konsonator;
#X obj 784 536 konsonator;
#X obj 374 383 r \$0-soska_paivitys;
#X obj 521 776 s \$0-soska_paivitys;
#X msg 553 618;
#X obj 509 753 del 3000;
#X obj 612 317 list-map;
#X obj 667 317 + 0;
#X obj 320 306 bng 24 250 50 0 empty empty empty 17 7 0 10 -262144
-1 -1;
#X obj 320 306 cnv 24 24 24 \$0-seuraava_osa empty >> 0 12 0 20 -262144
-66577 0;
#X obj 319 32 cnv 15 30 24 empty \$0-basstone D$ 6 12 0 14 -262144
-66577 0;
#X obj 2 307 bng 24 250 50 0 empty empty empty 17 7 0 10 -262144 -1
-1;
#X obj 2 307 cnv 24 24 24 \$0-edellinen_osa empty << 0 12 0 20 -262144
-66577 0;
#X obj 365 242 laskuri 12;
#X obj 377 274 m2n;
#X msg 377 292 label \$1;
#X obj 377 312 s \$0-basstone;
#X obj 27 321 iv-tulostin_transvari;
#X floatatom 280 32 5 0 0 0 - - -;
#X obj 27 228 iv-tulostin;
#X obj 27 257 iv-tulostin;
#X obj 27 294 iv-tulostin_transvari;
#X obj 927 180 h_map \$0-soinnut;
#X text 1031 180 listoja \, jotka tulostetaan rns-tulostimella \, mahdollisuus
myös sekkariksi;
#X text 841 668 TEE: -rns-tulostin -korjaa väritulostimet -> TOINEN
ON N+1;
#X obj 691 141 f;
#X obj 739 132 + 0;
#X connect 6 0 7 0;
#X connect 6 0 0 0;
#X connect 7 0 14 0;
#X connect 7 0 51 0;
#X connect 7 0 69 0;
#X connect 7 0 75 0;
#X connect 7 0 86 0;
#X connect 7 1 94 0;
#X connect 8 0 95 0;
#X connect 9 0 11 0;
#X connect 9 0 27 0;
#X connect 10 0 8 0;
#X connect 10 0 47 0;
#X connect 11 0 13 0;
#X connect 13 0 12 0;
#X connect 25 0 23 0;
#X connect 26 0 24 0;
#X connect 27 0 28 0;
#X connect 27 0 88 0;
#X connect 28 0 6 0;
#X connect 28 0 89 0;
#X connect 28 0 90 0;
#X connect 31 0 25 0;
#X connect 31 1 26 0;
#X connect 32 0 31 0;
#X connect 33 0 32 0;
#X connect 34 0 33 0;
#X connect 34 0 87 0;
#X connect 39 0 34 1;
#X connect 39 0 74 0;
#X connect 40 0 34 0;
#X connect 40 0 74 0;
#X connect 44 0 60 0;
#X connect 49 0 55 0;
#X connect 52 0 1 0;
#X connect 52 0 48 0;
#X connect 52 0 30 0;
#X connect 52 0 29 0;
#X connect 53 0 54 0;
#X connect 54 0 49 0;
#X connect 54 1 55 1;
#X connect 60 0 61 0;
#X connect 60 0 64 0;
#X connect 60 1 62 0;
#X connect 60 1 65 0;
#X connect 60 2 63 0;
#X connect 60 2 66 0;
#X connect 67 0 57 1;
#X connect 68 0 57 0;
#X connect 71 0 68 0;
#X connect 74 0 72 0;
#X connect 75 1 76 0;
#X connect 76 0 75 1;
#X connect 77 0 82 1;
#X connect 80 0 82 0;
#X connect 82 0 83 0;
#X connect 82 0 86 1;
#X connect 82 0 90 1;
#X connect 83 0 84 0;
#X connect 84 0 85 0;
#X connect 94 0 7 1;
#X connect 95 0 94 1;
#X coords 0 -1 1 1 350 950 1 0 0;
