#N canvas 355 137 939 596 10;
#N canvas 0 0 545 396 RGB 0;
#X obj 272 63 inlet;
#X obj 349 65 inlet;
#X obj 415 66 inlet;
#X text 277 38 red;
#X text 347 40 green;
#X text 419 40 blue;
#X obj 415 112 t b f;
#X obj 349 170 +;
#X obj 349 195 t b f;
#X obj 349 226 +;
#X obj 306 395 outlet;
#X obj 306 371 f;
#X obj 272 89 * -65536;
#X obj 349 90 * -256;
#X obj 415 90 * -1;
#X obj 349 257 - 1;
#X connect 0 0 12 0;
#X connect 1 0 13 0;
#X connect 2 0 14 0;
#X connect 6 0 7 0;
#X connect 6 1 7 1;
#X connect 7 0 8 0;
#X connect 8 0 9 0;
#X connect 8 1 9 1;
#X connect 9 0 15 0;
#X connect 11 0 10 0;
#X connect 12 0 9 0;
#X connect 13 0 7 0;
#X connect 14 0 6 0;
#X connect 15 0 11 0;
#X restore 521 389 pd RGB;
#X floatatom 501 343 5 1 255 0 - - -;
#X floatatom 535 343 5 1 255 0 - - -;
#X floatatom 569 343 5 1 255 0 - - -;
#X obj 258 -69 inlet;
#X obj 530 247 unpack f f f;
#X obj 430 283 +;
#X obj 465 283 +;
#X obj 503 283 +;
#X msg 487 248 0;
#X msg 487 228 128 128 128;
#X text 475 455 pakkaa \, \$1 = tausta \, \$2 = teksti;
#X msg 316 201 60;
#X msg 345 201 60;
#X msg 375 201 60;
#X obj 236 167 route 1 2 3 4 5 6 7 8 9 10 11;
#X msg 124 10 1;
#X obj 202 113 t b f b;
#X obj 191 89 t b f;
#X obj 431 435 f;
#X obj 431 455 outlet;
#X msg 445 165 -60;
#X msg 445 184 60;
#X text 468 164 diss;
#X text 467 184 kons;
#X obj 339 -68 inlet;
#X obj 263 27 +;
#X msg 407 201 100;
#X obj 263 59 mod 12;
#X obj 339 -7 < 1;
#X obj 339 13 sel 1;
#X obj 339 34 f;
#X obj 339 -27 t f f;
#X obj 339 55 < 0.5;
#X obj 382 54 >= 0.5;
#X obj 381 27 f;
#X obj 380 9 bng 15 250 50 0 empty empty empty 17 7 0 10 -262144 -1
-1;
#X text 382 -28 vastaanotetaan joko konsonanssiarvo tai verrattava
pohja-aani;
#X text 423 55 konsonanssiarvo;
#X text 404 26 verrokkipohja‰‰ni \, joka m‰‰r‰‰ sointuluokan;
#X obj 339 -48 route float list;
#X obj 430 86 list-sieve;
#X obj 506 -61 list-splat 1;
#X obj 487 -80 t l l b;
#X obj 258 -8 demux 0 1;
#X obj 309 -106 loadbang;
#X msg 309 -85 0;
#X msg 342 -86 1;
#X text 361 -109 ei verrata sis‰‰ntulevan listan pohjalta...;
#X text 482 -97 ...jos tulee lista \, demux kuljettaa signaalin eri
reitti‰;
#X msg 515 134 48 48 48;
#X obj 431 106 t b f;
#X obj 487 105 t b f;
#X msg 444 136 148 148 148;
#X text 25 -106 comment;
#X connect 0 0 19 1;
#X connect 1 0 0 0;
#X connect 2 0 0 1;
#X connect 3 0 0 2;
#X connect 4 0 44 0;
#X connect 5 0 8 0;
#X connect 5 1 7 0;
#X connect 5 2 6 0;
#X connect 6 0 1 0;
#X connect 7 0 2 0;
#X connect 8 0 3 0;
#X connect 9 0 8 1;
#X connect 9 0 7 1;
#X connect 9 0 6 1;
#X connect 9 0 8 0;
#X connect 9 0 7 0;
#X connect 9 0 6 0;
#X connect 10 0 5 0;
#X connect 12 0 6 1;
#X connect 13 0 8 1;
#X connect 14 0 7 1;
#X connect 15 0 13 0;
#X connect 15 1 12 0;
#X connect 15 2 13 0;
#X connect 15 3 12 0;
#X connect 15 4 14 0;
#X connect 15 5 12 0;
#X connect 15 5 13 0;
#X connect 15 6 14 0;
#X connect 15 7 13 0;
#X connect 15 8 12 0;
#X connect 15 9 13 0;
#X connect 15 10 12 0;
#X connect 15 11 27 0;
#X connect 16 0 18 0;
#X connect 17 0 10 0;
#X connect 17 1 15 0;
#X connect 17 2 9 0;
#X connect 18 0 19 0;
#X connect 18 1 17 0;
#X connect 19 0 20 0;
#X connect 21 0 8 1;
#X connect 21 0 7 1;
#X connect 21 0 6 1;
#X connect 22 0 8 1;
#X connect 22 0 7 1;
#X connect 22 0 6 1;
#X connect 25 0 40 0;
#X connect 26 0 28 0;
#X connect 27 0 7 1;
#X connect 28 0 18 0;
#X connect 29 0 30 0;
#X connect 30 0 31 0;
#X connect 30 1 36 0;
#X connect 31 0 34 0;
#X connect 31 0 33 0;
#X connect 32 0 29 0;
#X connect 32 1 31 1;
#X connect 32 1 35 1;
#X connect 33 0 21 0;
#X connect 34 0 22 0;
#X connect 35 0 26 1;
#X connect 36 0 35 0;
#X connect 40 0 32 0;
#X connect 40 1 43 0;
#X connect 41 0 51 0;
#X connect 41 1 52 0;
#X connect 42 0 26 1;
#X connect 43 0 41 1;
#X connect 43 1 42 0;
#X connect 43 2 47 0;
#X connect 44 0 26 0;
#X connect 44 1 41 0;
#X connect 45 0 46 0;
#X connect 46 0 44 1;
#X connect 50 0 5 0;
#X connect 51 0 53 0;
#X connect 51 1 15 0;
#X connect 52 0 50 0;
#X connect 52 1 15 0;
#X connect 53 0 5 0;
